<?xml version="1.0" standalone="no"?>
<!DOCTYPE svg PUBLIC "-//W3C//DTD SVG 20010904//EN"
 "http://www.w3.org/TR/2001/REC-SVG-20010904/DTD/svg10.dtd">
<svg version="1.0" xmlns="http://www.w3.org/2000/svg"
 width="4096.000000pt" height="4096.000000pt" viewBox="0 0 4096.000000 4096.000000"
 preserveAspectRatio="xMidYMid meet">

<g transform="translate(0.000000,4096.000000) scale(0.100000,-0.100000)"
fill="#000000" stroke="none">
<path d="M24517 32383 c-4 -10 -13 -28 -22 -40 -14 -18 -14 -21 -2 -19 26 3
47 27 47 52 0 28 -15 32 -23 7z m3 -38 c-7 -9 -15 -13 -17 -11 -7 7 7 26 19
26 6 0 6 -6 -2 -15z"/>
<path d="M21080 32139 c0 -8 7 -39 15 -69 17 -62 48 -266 100 -653 19 -144 51
-365 70 -492 38 -243 58 -375 100 -650 38 -253 57 -355 67 -362 6 -3 7 27 4
73 -12 167 -18 1164 -8 1164 6 0 40 -44 76 -97 35 -54 86 -125 113 -159 251
-317 383 -454 540 -561 166 -114 358 -195 488 -206 33 -3 49 -4 35 -1 -14 3
-32 8 -40 11 -8 3 -18 6 -21 5 -4 -1 -30 8 -58 18 -28 11 -73 29 -101 39 -27
11 -65 28 -83 40 -19 11 -37 18 -40 15 -3 -3 -16 4 -29 16 -13 12 -45 33 -73
46 -27 13 -46 23 -42 24 5 0 1 7 -7 16 -18 17 -21 34 -7 34 5 0 11 -8 13 -17
2 -13 6 -14 11 -6 4 7 -3 21 -17 35 -35 32 -43 72 -18 89 10 8 22 28 26 44 5
22 4 26 -4 15 -5 -8 -10 -13 -11 -10 -9 56 -8 60 19 60 15 0 38 -9 52 -20 14
-11 29 -20 34 -20 5 0 32 -11 60 -24 97 -46 125 -55 132 -45 9 14 2 19 -69 49
-86 36 -198 110 -270 178 -66 63 -430 522 -590 744 -119 164 -353 514 -398
594 -18 31 -35 51 -41 47 -6 -3 -9 -2 -5 3 3 5 -1 18 -9 29 -10 13 -14 15 -14
4z m1085 -1610 c11 -17 -13 -17 -30 1 -16 18 -16 18 4 13 12 -3 24 -9 26 -14z
m-85 -29 c0 -5 -4 -10 -10 -10 -5 0 -10 5 -10 10 0 6 5 10 10 10 6 0 10 -4 10
-10z"/>
<path d="M22632 31773 c-9 -32 -9 -35 2 -21 7 10 15 15 18 12 3 -3 5 6 4 20
-2 37 -11 32 -24 -11z"/>
<path d="M22661 31757 c-9 -12 -8 -16 5 -21 22 -8 28 -1 17 19 -8 14 -11 14
-22 2z"/>
<path d="M22696 31705 c3 -11 8 -35 11 -52 3 -18 12 -38 19 -44 21 -18 17 8
-12 66 -13 28 -22 41 -18 30z"/>
<path d="M22556 31607 c-26 -56 -41 -95 -33 -87 7 8 28 50 47 92 18 43 36 75
41 72 5 -3 9 -1 9 5 0 5 -4 12 -8 15 -5 3 -30 -41 -56 -97z"/>
<path d="M22753 31510 c6 -16 15 -26 19 -22 11 11 -2 52 -17 52 -11 0 -11 -6
-2 -30z"/>
<path d="M22492 31475 c-17 -37 -14 -45 4 -12 9 16 14 31 11 33 -2 2 -9 -7
-15 -21z"/>
<path d="M22777 31466 c-4 -9 1 -32 10 -49 10 -18 18 -35 19 -39 1 -5 3 -10 4
-13 1 -3 3 -8 4 -12 1 -5 6 -22 10 -40 4 -17 13 -37 21 -43 8 -6 12 -17 9 -24
-3 -7 2 -13 10 -13 12 0 11 9 -6 51 -11 28 -24 53 -29 54 -5 2 -7 7 -4 12 3 5
-5 37 -18 71 -17 45 -25 58 -30 45z"/>
<path d="M22416 31313 c-6 -14 -5 -15 5 -6 7 7 10 15 7 18 -3 3 -9 -2 -12 -12z"/>
<path d="M22377 31235 c-9 -19 -13 -35 -9 -35 8 0 34 61 29 67 -2 1 -11 -13
-20 -32z"/>
<path d="M22867 31202 c4 -9 13 -23 20 -30 7 -7 13 -20 13 -29 0 -8 6 -29 14
-46 8 -18 17 -43 20 -57 7 -29 45 -94 52 -88 4 4 -26 82 -71 183 -7 17 -16 40
-19 52 -4 11 -13 24 -21 27 -10 3 -12 0 -8 -12z"/>
<path d="M22326 31138 l-19 -33 22 23 c12 12 21 27 19 33 -2 5 -12 -5 -22 -23z"/>
<path d="M22274 31047 c-26 -38 -39 -64 -31 -57 12 11 58 82 55 86 -2 1 -13
-12 -24 -29z"/>
<path d="M22224 30968 c-4 -7 -14 -23 -22 -36 -13 -20 -13 -22 1 -16 9 3 16 9
15 12 -1 4 3 17 10 30 13 23 9 32 -4 10z"/>
<path d="M22980 30935 c0 -12 24 -55 32 -55 10 0 10 3 -2 34 -8 22 -30 37 -30
21z"/>
<path d="M22454 30865 c-9 -14 -15 -27 -13 -30 3 -2 12 10 21 26 21 36 15 39
-8 4z"/>
<path d="M22147 30839 c-25 -42 -27 -59 -5 -59 6 0 8 9 5 20 -3 11 3 31 15 45
11 15 18 28 15 31 -3 3 -16 -14 -30 -37z"/>
<path d="M23016 30861 c-4 -5 -2 -12 4 -16 5 -3 10 -15 10 -26 0 -10 4 -19 8
-19 4 0 8 -9 9 -21 1 -11 12 -35 25 -52 26 -36 37 -97 17 -97 -7 0 -10 -3 -7
-6 4 -3 16 -1 27 5 16 9 19 16 12 29 -19 37 -71 159 -71 168 -1 17 -28 45 -34
35z"/>
<path d="M25712 30730 c0 -19 2 -27 5 -17 2 9 2 25 0 35 -3 9 -5 1 -5 -18z"/>
<path d="M22374 30742 c4 -7 2 -12 -3 -12 -6 0 -11 -7 -11 -17 0 -9 -3 -13 -7
-10 -3 4 -12 2 -19 -4 -14 -11 -73 3 -104 24 -13 10 -13 9 0 -5 18 -20 100
-49 100 -36 0 5 4 7 9 3 5 -3 19 8 30 24 15 21 18 32 10 37 -8 4 -9 3 -5 -4z"/>
<path d="M22817 30669 c4 -13 8 -18 11 -10 2 7 -1 18 -6 23 -8 8 -9 4 -5 -13z"/>
<path d="M22840 30607 c0 -2 7 -18 16 -35 15 -31 34 -43 34 -22 0 6 -4 10 -10
10 -5 0 -10 5 -10 11 0 6 -7 17 -15 25 -8 9 -15 14 -15 11z"/>
<path d="M22490 30503 c0 -7 0 -16 0 -20 1 -14 47 -21 82 -14 l33 8 -42 7
c-24 4 -46 7 -49 6 -4 -1 -11 4 -15 12 -7 10 -9 10 -9 1z"/>
<path d="M22623 30457 c0 -9 10 -12 29 -9 33 5 33 7 -3 15 -17 5 -26 2 -26 -6z"/>
<path d="M22700 30446 c0 -10 28 -13 41 -5 10 6 7 9 -13 9 -16 0 -28 -2 -28
-4z"/>
<path d="M23286 30182 c-3 -6 3 -12 15 -15 12 -3 19 -1 16 6 -5 15 -24 20 -31
9z"/>
<path d="M22925 30150 c-27 -7 -28 -8 -5 -8 14 0 34 3 45 8 25 11 2 11 -40 0z"/>
<path d="M22858 30133 c6 -2 18 -2 25 0 6 3 1 5 -13 5 -14 0 -19 -2 -12 -5z"/>
<path d="M22808 30123 c7 -3 16 -2 19 1 4 3 -2 6 -13 5 -11 0 -14 -3 -6 -6z"/>
<path d="M23091 30091 c-11 -7 -11 -13 3 -32 l16 -23 0 32 c0 36 0 35 -19 23z"/>
<path d="M23360 30071 c0 -6 4 -13 10 -16 6 -3 7 1 4 9 -7 18 -14 21 -14 7z"/>
<path d="M17195 30005 l-30 -13 35 -6 c237 -38 307 -50 375 -66 44 -11 123
-29 175 -40 214 -47 463 -115 625 -173 201 -71 265 -99 464 -197 306 -152 433
-231 644 -399 297 -237 491 -480 670 -836 138 -275 209 -478 261 -745 55 -282
66 -391 66 -654 1 -130 5 -236 10 -236 4 0 10 21 13 48 3 26 8 61 10 77 2 17
2 22 0 13 -2 -10 -9 -18 -14 -18 -15 0 -10 102 6 134 18 34 22 207 6 248 -8
21 -7 26 3 22 9 -3 12 4 11 26 -2 39 17 39 32 0 6 -17 8 -28 5 -26 -4 2 -7
-48 -6 -112 1 -173 1 -173 24 -179 24 -6 27 -23 3 -23 -14 0 -14 -2 2 -20 15
-16 15 -22 5 -35 -8 -10 -9 -15 -1 -15 6 0 11 -11 11 -24 0 -19 4 -23 20 -19
11 3 20 9 20 14 0 5 37 8 83 7 45 -1 63 -3 40 -5 -52 -5 -57 -23 -7 -23 22 0
33 -4 29 -11 -4 -6 -13 -8 -21 -5 -9 3 -18 -2 -21 -12 -4 -9 -10 -20 -15 -23
-4 -3 -9 -18 -10 -35 -1 -16 -6 -35 -11 -41 -7 -10 -4 -13 12 -13 12 0 21 -6
21 -15 0 -11 -5 -12 -26 -5 -33 13 -56 -8 -57 -55 -1 -21 -4 -30 -9 -22 -6 9
-8 9 -8 0 0 -7 -9 -13 -20 -13 -13 0 -20 7 -20 20 0 11 5 20 10 20 6 0 10 9
10 20 0 11 -4 20 -9 20 -6 0 -12 17 -14 38 -2 21 -3 14 -2 -15 1 -29 -3 -54
-8 -56 -5 -1 -2 -20 7 -41 9 -21 16 -50 15 -65 0 -23 -1 -24 -9 -6 l-9 20 0
-20 c0 -11 3 -37 8 -58 7 -30 6 -40 -8 -50 -9 -6 -18 -25 -19 -40 -1 -16 -4
-33 -8 -38 -9 -15 -34 -10 -34 6 0 8 -6 15 -14 15 -21 0 -31 83 -17 139 18 73
8 179 -12 129 -3 -7 -6 16 -8 52 -2 69 -3 65 -20 -135 -26 -316 -93 -706 -180
-1043 -22 -85 -36 -159 -33 -165 4 -7 3 -8 -1 -4 -5 4 -26 -45 -47 -110 -30
-95 -35 -120 -25 -131 11 -10 14 -5 15 28 3 44 20 99 21 68 1 -10 6 -18 12
-18 6 0 10 12 9 28 -5 66 -2 72 33 73 27 0 29 2 12 9 -11 5 -15 9 -9 9 6 1 10
20 10 45 -1 24 2 42 7 39 4 -2 7 0 7 6 0 5 -6 11 -12 13 -8 3 -3 10 12 18 14
7 28 18 32 24 6 8 8 8 8 -1 0 -6 10 -14 23 -16 13 -3 6 -5 -18 -6 -22 -2 -34
-5 -27 -8 6 -2 12 -11 12 -19 0 -9 11 -14 35 -14 32 0 35 -2 31 -25 -4 -22 0
-27 24 -32 17 -3 32 -14 35 -24 4 -11 10 -17 15 -14 5 3 4 -11 -1 -30 -12 -41
-3 -87 12 -64 7 12 9 12 9 0 0 -36 20 12 49 119 49 179 53 192 67 240 17 57
90 353 99 400 3 19 14 71 25 115 10 44 24 117 31 163 9 57 18 86 29 92 14 7
20 -2 38 -58 36 -116 141 -609 173 -817 16 -105 67 -581 90 -840 12 -137 24
-256 28 -262 4 -7 5 13 4 45 -3 57 13 148 29 167 13 14 10 25 -7 25 -13 0 -14
4 -4 21 8 15 8 19 0 15 -7 -5 -11 3 -11 21 0 22 2 25 10 13 13 -20 13 -4 -1
21 -6 12 -7 25 -1 32 13 18 14 97 1 113 -9 11 -7 14 10 14 11 0 21 5 21 10 0
6 -7 10 -16 10 -12 0 -15 6 -10 23 3 12 6 30 6 39 0 10 10 22 23 28 20 10 20
10 5 -3 -11 -8 -17 -26 -17 -43 2 -27 2 -27 6 -4 3 13 15 34 28 46 22 20 23
20 34 2 10 -16 15 -17 27 -8 12 10 14 8 14 -15 0 -22 -3 -25 -14 -16 -18 15
-41 -10 -24 -27 11 -11 33 -3 70 26 14 12 19 10 32 -17 18 -34 21 -87 6 -96
-5 -3 -10 -19 -10 -36 0 -25 4 -29 28 -29 21 0 24 -2 12 -10 -12 -7 -8 -10 15
-10 20 0 26 3 17 9 -11 7 -10 10 3 15 9 3 21 4 26 0 15 -9 10 -44 -6 -44 -8 0
-15 -8 -15 -17 0 -9 -10 -27 -22 -40 l-21 -23 21 0 c15 0 22 6 22 20 0 26 28
26 51 -1 17 -20 19 -20 36 -4 16 17 16 17 -6 10 -17 -5 -22 -4 -19 6 3 8 12
13 22 11 9 -2 16 2 16 8 0 5 -9 10 -20 10 -11 0 -20 -4 -20 -10 0 -5 -4 -10
-10 -10 -5 0 -10 9 -10 20 0 17 6 19 39 17 36 -2 72 -17 43 -17 -7 0 -12 -4
-12 -10 0 -5 9 -10 20 -10 13 0 20 -7 20 -20 0 -15 7 -20 25 -20 20 0 25 5 25
25 0 18 -5 25 -20 25 -34 0 -22 17 17 25 45 8 73 38 73 77 0 15 5 28 10 28 12
0 13 -24 4 -69 -5 -22 -11 -30 -21 -27 -8 3 -11 1 -8 -4 3 -6 17 -7 31 -4 20
5 24 2 24 -15 0 -12 5 -21 10 -21 6 0 10 -10 11 -22 l0 -23 11 22 c8 17 6 26
-11 44 -23 25 -26 35 -11 44 6 3 10 -3 10 -15 0 -12 5 -18 10 -15 16 10 29
-39 20 -79 -4 -20 -4 -36 1 -36 5 0 9 -9 9 -20 0 -11 -4 -20 -9 -20 -4 0 -3
-18 2 -40 6 -22 17 -40 23 -40 8 0 13 -22 16 -64 2 -45 0 -62 -8 -59 -7 2 -15
0 -19 -6 -3 -6 2 -11 12 -11 15 0 18 -6 15 -38 -2 -22 1 -55 6 -75 7 -26 7
-37 -1 -41 -9 -3 -9 -7 -1 -13 6 -4 10 -25 9 -46 -1 -21 2 -40 6 -43 4 -2 11
-36 15 -74 3 -39 10 -70 15 -70 5 0 8 -24 7 -52 -1 -89 33 -462 43 -473 7 -7
8 4 5 30 -19 138 -34 357 -46 655 -31 778 -125 1491 -271 2055 -41 156 -110
324 -191 465 -45 79 -77 192 -113 407 -20 114 -54 289 -76 389 -78 357 -135
522 -294 850 -145 301 -254 471 -465 724 -148 178 -180 211 -340 349 -285 246
-602 437 -950 573 -248 98 -411 136 -825 193 -110 15 -314 25 -430 20 -191 -8
-297 -8 -325 -2 -14 3 -65 8 -115 11 -103 7 -122 10 -130 18 -3 3 -22 3 -42 1
-21 -2 -42 2 -52 10 -13 12 -21 12 -46 2z m585 -65 c0 -5 -4 -10 -10 -10 -5 0
-10 5 -10 10 0 6 5 10 10 10 6 0 10 -4 10 -10z m83 -12 c3 -10 9 -10 29 1 20
10 55 12 154 6 71 -3 145 -10 164 -13 19 -4 56 -7 83 -7 26 1 47 -3 47 -8 0
-5 6 -7 13 -4 6 2 25 0 41 -4 18 -5 34 -5 41 1 8 7 20 4 38 -11 15 -11 32 -17
37 -14 6 4 22 0 35 -9 13 -9 41 -17 62 -18 37 -1 37 -1 6 -5 -29 -4 -31 -6
-20 -24 6 -10 21 -19 32 -19 12 0 27 -6 34 -12 6 -7 17 -13 24 -13 6 0 14 -13
17 -30 l6 -30 7 33 c4 21 11 31 18 26 9 -5 9 -66 -1 -141 0 -2 -10 -3 -22 -3
-27 1 -65 27 -54 37 4 4 12 0 17 -10 6 -9 15 -17 21 -17 14 0 -9 28 -35 42
-15 8 -18 7 -12 -3 6 -9 3 -11 -9 -6 -10 4 -31 7 -47 7 -20 0 -29 5 -29 16 0
13 -3 14 -15 4 -12 -10 -19 -9 -37 2 -13 8 -45 20 -73 27 -27 6 -63 18 -80 25
-16 8 -54 17 -82 21 -29 4 -53 11 -53 17 0 5 -4 6 -10 3 -5 -3 -10 -2 -10 4 0
6 -7 8 -15 5 -8 -3 -29 1 -46 10 -18 9 -45 16 -61 16 -17 0 -31 6 -35 16 -4
11 -8 12 -13 4 -8 -13 -70 -5 -70 9 0 13 -89 44 -111 38 -12 -3 -19 0 -19 9 0
8 -4 14 -10 14 -5 0 -10 5 -10 10 0 15 48 12 53 -2z m937 -172 c0 -11 -19 -15
-25 -6 -3 5 1 10 9 10 9 0 16 -2 16 -4z m8 -108 c-3 -7 -13 -15 -24 -17 -16
-3 -17 -1 -5 13 16 19 34 21 29 4z m-15 -43 c8 -19 -12 -30 -26 -16 -9 9 -7
11 8 6 18 -6 18 -5 2 5 -9 6 -22 8 -27 5 -6 -3 -10 -1 -10 4 0 17 47 13 53 -4z
m107 -25 c0 -17 5 -19 24 -14 36 9 48 -3 28 -27 -15 -17 -18 -18 -28 -4 -6 8
-14 12 -17 8 -4 -3 -2 -12 4 -20 18 -21 -2 -15 -21 7 -10 12 -16 29 -13 40 4
15 -1 19 -29 23 -30 3 -29 4 10 5 36 2 42 -1 42 -18z m95 -70 c3 -5 -1 -10
-10 -10 -9 0 -13 5 -10 10 3 6 8 10 10 10 2 0 7 -4 10 -10z m55 -20 c0 -5 -10
-10 -22 -10 -19 0 -20 2 -8 10 19 13 30 13 30 0z m1445 -2070 c3 -5 1 -10 -4
-10 -6 0 -11 5 -11 10 0 6 2 10 4 10 3 0 8 -4 11 -10z m15 -484 c0 -3 -4 -8
-10 -11 -5 -3 -10 -1 -10 4 0 6 5 11 10 11 6 0 10 -2 10 -4z m310 -275 c0 -6
-4 -13 -10 -16 -5 -3 -10 1 -10 9 0 9 5 16 10 16 6 0 10 -4 10 -9z m-30 -43
c0 -21 -13 -30 -34 -22 -20 8 -21 44 -1 44 8 0 15 6 15 13 0 19 20 -15 20 -35z
m26 -55 c-11 -11 -17 4 -9 23 7 18 8 18 11 1 2 -10 1 -21 -2 -24z m-41 -46
c15 -4 13 -5 -7 -6 -16 0 -28 4 -28 9 0 7 -6 7 -20 0 -21 -11 -25 -4 -14 25 6
14 9 14 28 -3 11 -11 30 -22 41 -25z m335 28 c-7 -9 -15 -13 -17 -11 -7 7 7
26 19 26 6 0 6 -6 -2 -15z m-252 -59 c-1 -1 -16 1 -33 4 l-30 7 25 10 c19 8
27 7 33 -4 5 -8 7 -16 5 -17z m-363 -11 c0 -14 -3 -25 -7 -25 -5 0 -8 11 -8
25 0 14 3 25 8 25 4 0 7 -11 7 -25z m505 14 c0 -8 5 -7 15 1 9 7 18 10 21 8 3
-3 -7 -15 -22 -27 -29 -23 -49 -16 -38 12 7 19 24 23 24 6z m-35 -48 c-6 -5
-20 -12 -32 -16 -17 -5 -23 -2 -23 9 0 11 10 16 32 16 19 0 28 -4 23 -9z
m-310 -11 c-3 -5 -10 -10 -16 -10 -5 0 -9 5 -9 10 0 6 7 10 16 10 8 0 12 -4 9
-10z m65 -26 c0 -16 -30 -33 -47 -27 -6 2 -14 -1 -18 -6 -3 -7 3 -11 14 -11
16 0 21 -6 21 -25 0 -16 -6 -25 -16 -25 -9 0 -12 5 -8 12 5 8 0 9 -14 6 -19
-5 -21 -3 -15 20 3 15 9 29 13 32 3 3 9 12 12 20 7 19 58 23 58 4z m-110 -124
c0 -5 -4 -10 -10 -10 -5 0 -10 5 -10 10 0 6 5 10 10 10 6 0 10 -4 10 -10z
m-76 -136 c4 -10 1 -14 -6 -12 -15 5 -23 28 -10 28 5 0 13 -7 16 -16z m-174
-748 c0 -3 -4 -8 -10 -11 -5 -3 -10 -1 -10 4 0 6 5 11 10 11 6 0 10 -2 10 -4z
m23 -113 c-7 -2 -21 -2 -30 0 -10 3 -4 5 12 5 17 0 24 -2 18 -5z m1247 -247
c0 -3 -4 -8 -10 -11 -5 -3 -10 -1 -10 4 0 6 5 11 10 11 6 0 10 -2 10 -4z m43
-68 c-2 -4 -20 -7 -41 -6 -20 1 -31 3 -24 6 6 2 12 11 12 19 0 9 8 24 18 33
16 16 18 15 28 -14 6 -17 9 -34 7 -38z m-123 7 c0 -8 -4 -15 -10 -15 -5 0 -10
7 -10 15 0 8 5 15 10 15 6 0 10 -7 10 -15z m30 -40 c0 -8 -4 -15 -10 -15 -5 0
-10 7 -10 15 0 8 5 15 10 15 6 0 10 -7 10 -15z m80 5 c0 -5 -4 -10 -9 -10 -6
0 -13 5 -16 10 -3 6 1 10 9 10 9 0 16 -4 16 -10z m31 -73 c-8 -8 -11 1 -11 29
0 53 14 67 18 19 2 -21 -1 -42 -7 -48z m-511 38 c-7 -8 -16 -15 -21 -15 -5 0
-6 7 -3 15 4 8 13 15 21 15 13 0 13 -3 3 -15z m-20 -51 c0 -14 -5 -24 -11 -22
-6 2 -10 7 -10 11 1 4 1 14 1 22 0 8 5 15 10 15 6 0 10 -12 10 -26z m100 -20
c0 -2 -7 -4 -15 -4 -8 0 -15 4 -15 10 0 5 7 7 15 4 8 -4 15 -8 15 -10z m370
-130 c0 -2 -9 -4 -21 -4 -11 0 -18 4 -14 10 5 8 35 3 35 -6z m80 -13 c0 -6 -4
-13 -10 -16 -5 -3 -10 1 -10 9 0 9 5 16 10 16 6 0 10 -4 10 -9z m-334 -48
c-10 -10 -19 5 -10 18 6 11 8 11 12 0 2 -7 1 -15 -2 -18z m254 -13 c-5 -22 -8
-27 -9 -13 -1 21 9 56 14 51 2 -2 0 -19 -5 -38z m127 -42 c-3 -8 -6 -5 -6 6
-1 11 2 17 5 13 3 -3 4 -12 1 -19z m90 -700 c-3 -7 -5 -2 -5 12 0 14 2 19 5
13 2 -7 2 -19 0 -25z"/>
<path d="M18652 29738 c2 -12 8 -23 14 -25 7 -2 10 6 7 22 -6 30 -26 34 -21 3z"/>
<path d="M23397 29989 c4 -13 8 -18 11 -10 2 7 -1 18 -6 23 -8 8 -9 4 -5 -13z"/>
<path d="M23130 29994 c0 -6 7 -19 16 -30 14 -18 14 -18 3 6 -14 31 -19 36
-19 24z"/>
<path d="M27132 29971 c-7 -4 -12 -14 -10 -22 2 -8 -4 -13 -13 -11 -9 1 -19
-4 -22 -11 -10 -25 22 -14 55 20 30 31 24 46 -10 24z"/>
<path d="M23520 29751 c0 -6 4 -13 10 -16 6 -3 7 1 4 9 -7 18 -14 21 -14 7z"/>
<path d="M24340 29665 c0 -8 4 -15 10 -15 5 0 7 7 4 15 -4 8 -8 15 -10 15 -2
0 -4 -7 -4 -15z"/>
<path d="M14380 29614 c-323 -27 -442 -40 -655 -70 -382 -54 -608 -104 -945
-210 -498 -156 -858 -307 -1163 -488 -26 -16 -51 -26 -54 -23 -3 4 -13 -2 -22
-12 -9 -11 -29 -27 -45 -37 -29 -18 -29 -18 -17 3 6 12 19 27 29 32 14 9 11
11 -18 12 -30 1 -27 3 20 12 47 9 51 11 30 18 -24 7 -24 7 -2 8 12 1 22 6 22
13 0 9 3 9 12 0 26 -26 35 -13 28 36 -5 26 -6 50 -3 55 2 4 0 7 -6 7 -17 0
-24 -22 -10 -31 7 -4 10 -11 6 -16 -7 -7 -22 8 -30 30 -1 5 -19 6 -40 2 -33
-6 -37 -10 -37 -38 0 -28 -1 -29 -17 -15 -10 9 -35 19 -57 22 -31 6 -38 5 -33
-7 4 -11 -6 -16 -44 -21 -40 -5 -49 -10 -49 -26 0 -11 -4 -20 -10 -20 -5 0
-10 7 -10 15 0 8 -7 15 -15 15 -8 0 -15 4 -15 9 0 11 39 26 59 22 9 -2 12 3 8
13 -4 10 -1 16 8 16 8 0 15 5 15 10 0 16 -27 12 -45 -7 -13 -13 -18 -14 -25
-3 -4 7 -13 9 -19 6 -6 -4 -9 -11 -6 -15 2 -5 -6 -13 -19 -19 -19 -8 -25 -6
-35 10 -11 18 -11 20 3 15 8 -3 18 -2 21 3 4 6 0 10 -7 10 -7 0 -2 7 10 16 12
8 28 12 35 8 6 -4 9 -4 5 1 -7 7 55 55 71 55 5 0 15 10 23 22 11 17 16 19 23
8 6 -9 4 -11 -5 -5 -9 6 -11 4 -6 -4 5 -7 10 -10 13 -7 3 3 15 1 27 -5 18 -9
19 -8 5 3 -19 16 -21 48 -2 41 7 -3 16 2 19 11 3 9 10 13 15 10 5 -3 9 0 9 6
0 6 4 9 9 5 5 -3 21 0 36 7 17 8 22 14 13 19 -15 9 -129 -48 -269 -136 -9 -5
-32 -19 -50 -29 -51 -28 -255 -162 -334 -219 -539 -388 -875 -727 -1163 -1174
-195 -301 -337 -611 -430 -938 -68 -237 -108 -592 -99 -879 12 -374 81 -678
229 -1006 235 -523 787 -1022 1329 -1203 331 -111 781 -144 1149 -86 96 15 96
15 43 56 -46 34 -220 181 -254 213 -66 63 -101 90 -109 85 -5 -3 -7 0 -4 8 3
9 -8 25 -28 40 -43 33 -343 354 -404 432 -43 55 -219 318 -309 459 -112 179
-240 494 -298 736 -53 220 -62 307 -62 575 1 259 12 372 56 565 39 173 93 344
157 500 293 712 902 1302 1762 1708 191 90 297 129 570 211 282 84 490 127
915 191 260 38 734 50 1073 25 487 -36 780 -102 1277 -290 416 -157 901 -516
1125 -834 194 -273 318 -517 395 -771 64 -211 91 -365 108 -625 10 -152 13
-178 18 -130 5 56 6 54 7 -29 3 -153 22 -86 26 90 2 87 7 174 11 193 6 25 4
37 -7 45 -19 14 -33 56 -19 56 6 0 11 -7 11 -15 0 -8 5 -15 10 -15 14 0 12 27
-2 33 -10 3 -10 9 0 26 14 25 15 31 3 31 -5 0 -11 -10 -15 -22 -4 -18 -8 -20
-17 -11 -10 10 -7 18 15 38 29 27 27 32 -7 13 -20 -10 -21 -10 -9 5 12 14 11
20 -7 43 -12 15 -21 32 -21 38 0 6 4 5 9 -3 6 -9 11 -10 15 -2 4 6 3 11 -3 11
-5 0 -9 16 -8 35 2 29 6 35 25 35 18 0 22 -6 22 -31 0 -17 4 -28 10 -24 6 3
10 -3 10 -14 0 -30 11 -51 27 -51 21 0 42 -24 40 -46 -2 -15 4 -18 26 -16 21
2 27 -1 27 -17 0 -23 37 -38 53 -22 8 8 5 11 -11 11 -12 0 -22 5 -22 10 0 6 9
10 21 10 12 0 17 4 14 11 -4 6 -13 8 -21 5 -9 -4 -14 2 -14 15 0 17 5 20 33
17 31 -3 32 -4 32 -52 0 -34 6 -52 18 -61 15 -11 15 -14 2 -25 -8 -7 -15 -16
-15 -21 0 -17 21 -9 44 16 24 26 69 37 48 13 -6 -7 -8 -25 -5 -40 6 -33 38
-38 46 -8 3 11 12 20 21 20 12 0 16 11 17 43 1 23 2 47 4 52 1 6 3 14 3 18 1
4 12 -1 24 -13 12 -11 28 -20 35 -20 21 0 15 -27 -7 -33 -15 -4 -20 0 -20 14
0 24 -16 25 -22 1 -3 -11 2 -23 13 -30 23 -15 49 -15 49 -2 0 13 55 13 101 0
34 -9 37 -14 43 -56 3 -26 6 -54 6 -63 0 -14 -2 -14 -10 -1 -8 11 -9 7 -4 -15
11 -56 14 -61 24 -45 8 12 10 12 10 2 0 -8 -10 -16 -21 -19 -21 -6 -21 -7 -4
-19 10 -8 15 -20 11 -29 -3 -9 1 -23 9 -31 8 -9 15 -27 15 -40 0 -14 4 -22 10
-19 6 3 10 2 10 -4 0 -5 -5 -11 -11 -13 -7 -2 -12 -18 -13 -36 0 -18 -4 -32
-9 -32 -9 0 -5 -307 4 -322 7 -11 43 180 59 312 29 247 -6 633 -81 895 -56
197 -193 489 -298 640 -38 55 -103 147 -143 205 -152 219 -470 500 -801 709
-177 112 -226 138 -437 234 -348 158 -653 245 -1215 346 -314 57 -388 63 -825
66 -223 1 -425 1 -450 -1z m-2820 -704 c0 -22 -7 -25 -29 -11 -16 10 -6 31 15
31 8 0 14 -9 14 -20z m-420 0 c-20 -13 -33 -13 -25 0 3 6 14 10 23 10 15 0 15
-2 2 -10z m-60 -35 c-11 -13 -10 -14 4 -9 9 3 16 1 16 -5 0 -6 -6 -11 -14 -11
-8 0 -22 -3 -31 -6 -23 -9 -15 18 10 33 27 16 30 16 15 -2z m427 -2 c-9 -2
-15 -8 -12 -13 3 -4 -2 -10 -10 -14 -10 -4 -15 1 -15 14 0 15 6 20 28 19 17
-1 20 -3 9 -6z m-487 -28 c-7 -8 -17 -15 -23 -15 -6 0 -2 7 9 15 25 19 30 19
14 0z m-52 -35 c-10 -6 -14 -18 -11 -32 4 -21 3 -21 -7 -5 -13 20 2 47 24 47
6 0 4 -5 -6 -10z m-48 -40 c0 -5 -5 -10 -11 -10 -5 0 -7 5 -4 10 3 6 8 10 11
10 2 0 4 -4 4 -10z m513 -37 c-7 -2 -19 -2 -25 0 -7 3 -2 5 12 5 14 0 19 -2
13 -5z m-38 -27 c-32 -14 -41 -13 -30 3 3 6 18 11 33 11 l27 -1 -30 -13z
m6395 -1246 c0 -5 -4 -10 -10 -10 -5 0 -10 5 -10 10 0 6 5 10 10 10 6 0 10 -4
10 -10z m60 -80 c0 -11 -4 -20 -10 -20 -5 0 -10 -5 -10 -11 0 -5 5 -7 11 -3 8
4 9 -1 4 -17 -4 -13 -9 -26 -12 -29 -7 -8 -23 24 -18 38 3 7 -2 23 -10 35 -14
22 -13 23 15 25 24 2 30 -2 30 -18z m34 -56 c17 -7 22 -44 6 -44 -5 0 -10 -11
-10 -24 0 -14 -4 -27 -10 -31 -5 -3 -7 -12 -4 -20 3 -7 1 -22 -5 -32 -9 -15
-11 -14 -9 12 1 17 -1 36 -6 43 -4 7 -2 12 3 12 6 0 11 9 11 20 0 11 5 20 10
20 14 0 12 37 -2 43 -7 3 -10 6 -6 6 3 1 13 -2 22 -5z m607 -67 c12 4 19 0 19
-10 0 -30 -48 -30 -77 -1 -16 15 4 26 26 14 8 -4 22 -5 32 -3z m-543 -17 c7
-11 10 -20 6 -20 -7 0 -34 27 -34 34 0 13 16 5 28 -14z m32 -57 c0 -19 -3 -24
-10 -17 -6 6 -8 18 -4 27 9 24 14 21 14 -10z m297 -35 c-3 -8 -6 -5 -6 6 -1
11 2 17 5 13 3 -3 4 -12 1 -19z m248 -8 c3 -5 1 -10 -4 -10 -6 0 -11 5 -11 10
0 6 2 10 4 10 3 0 8 -4 11 -10z m-165 -30 c0 -5 -9 -10 -20 -10 -11 0 -20 5
-20 10 0 6 9 10 20 10 11 0 20 -4 20 -10z m-130 -34 c0 -2 -3 -11 -6 -20 -9
-23 -24 -20 -24 4 0 11 7 20 15 20 8 0 15 -2 15 -4z m305 -56 c-5 -8 -11 -8
-17 -2 -6 6 -7 16 -3 22 5 8 11 8 17 2 6 -6 7 -16 3 -22z m-275 -10 c0 -16 -4
-30 -10 -30 -5 0 -10 14 -10 30 0 17 5 30 10 30 6 0 10 -13 10 -30z m185 10
c-8 -13 -35 -13 -55 0 -11 7 -5 10 23 10 23 0 36 -4 32 -10z m-555 -255 l-7
-60 -2 70 c0 38 3 65 7 60 5 -6 6 -37 2 -70z m-7540 -860 c0 -8 -2 -15 -4 -15
-2 0 -6 7 -10 15 -3 8 -1 15 4 15 6 0 10 -7 10 -15z m0 -84 c0 -11 5 -23 10
-26 6 -3 10 -24 10 -46 0 -25 4 -38 10 -34 7 4 8 -3 4 -22 -4 -15 -3 -25 1
-21 5 4 14 3 22 -3 11 -10 9 -15 -9 -31 -21 -18 -22 -20 -5 -29 12 -7 16 -17
11 -31 -4 -13 -2 -18 4 -14 5 3 12 -8 14 -25 3 -16 0 -33 -5 -36 -6 -3 -7 -1
-3 5 4 7 2 12 -3 12 -6 0 -11 -11 -11 -25 0 -18 4 -23 16 -18 12 4 15 2 12 -8
-2 -7 4 -21 15 -30 16 -12 17 -18 7 -24 -8 -5 -11 -4 -6 3 3 6 -2 16 -13 21
-27 15 -31 14 -31 -10 0 -20 0 -20 -28 3 -28 22 -28 23 -8 30 21 6 21 6 1 7
-16 1 -21 8 -20 29 0 16 -5 26 -12 25 -9 -2 -13 10 -13 37 0 22 5 40 10 40 17
0 11 38 -7 50 -13 8 -14 13 -5 16 18 8 15 24 -5 24 -17 1 -17 1 0 11 21 12 22
29 1 29 -8 0 -12 5 -9 11 4 6 13 8 20 5 7 -2 16 2 19 10 8 20 8 49 0 41 -12
-12 -33 17 -22 31 15 18 28 15 28 -7z m-523 -93 c-3 -7 -5 -2 -5 12 0 14 2 19
5 13 2 -7 2 -19 0 -25z m13 -102 c5 -24 5 -35 -1 -29 -5 5 -11 34 -14 64 -2
30 -2 43 1 29 3 -14 9 -42 14 -64z m30 -141 c0 -5 -5 -3 -10 5 -5 8 -10 20
-10 25 0 6 5 3 10 -5 5 -8 10 -19 10 -25z m460 15 c0 -5 -4 -10 -9 -10 -6 0
-13 5 -16 10 -3 6 1 10 9 10 9 0 16 -4 16 -10z m-453 -102 c-3 -8 -6 -5 -6 6
-1 11 2 17 5 13 3 -3 4 -12 1 -19z m507 -61 c18 -2 36 1 44 9 19 19 32 17 32
-4 0 -14 -8 -19 -30 -19 -16 0 -39 -8 -50 -18 -11 -10 -20 -13 -20 -7 0 7 -9
21 -20 32 -11 11 -20 32 -19 48 l0 27 16 -32 c11 -22 24 -32 47 -36z m56 34
c0 -5 -7 -12 -16 -15 -22 -9 -24 -8 -24 9 0 8 9 15 20 15 11 0 20 -4 20 -9z
m-525 -61 c3 -32 -12 -23 -17 10 -3 21 -1 27 6 20 5 -5 10 -19 11 -30z m524
-24 c-2 -2 -17 -6 -32 -10 -21 -5 -28 -3 -25 6 5 15 52 28 57 16 1 -5 1 -11 0
-12z m31 -21 c-42 -16 -70 -18 -70 -6 0 11 30 18 75 19 l30 0 -35 -13z m34
-13 c2 -4 7 -25 11 -47 l7 -40 -16 29 c-9 15 -13 32 -10 37 3 5 0 9 -6 9 -11
0 -9 -44 3 -56 12 -12 8 -24 -8 -24 -10 0 -15 10 -15 34 0 53 18 84 34 58z
m-107 -34 c-3 -8 -6 -5 -6 6 -1 11 2 17 5 13 3 -3 4 -12 1 -19z m10 -44 c-2
-2 -12 -1 -22 3 -18 6 -18 7 1 13 17 7 33 -5 21 -16z m43 1 c0 -8 -4 -15 -10
-15 -5 0 -10 7 -10 15 0 8 5 15 10 15 6 0 10 -7 10 -15z m-110 -4 c0 -6 -4
-13 -10 -16 -5 -3 -10 1 -10 9 0 9 5 16 10 16 6 0 10 -4 10 -9z m188 -39 c2
-7 -3 -12 -12 -12 -25 0 -19 -20 7 -21 l22 0 -22 -9 c-19 -8 -23 -17 -23 -50
0 -22 -4 -40 -10 -40 -5 0 -10 9 -10 19 0 11 -4 21 -10 23 -6 2 -6 17 1 43 6
22 13 45 15 52 4 14 37 10 42 -5z m-501 -91 c4 -3 10 -19 12 -36 3 -32 -7 -31
-13 2 -2 11 -13 34 -24 53 -11 18 -18 39 -15 47 4 10 10 2 19 -23 7 -20 16
-40 21 -43z m423 67 c0 -9 4 -8 10 2 11 17 12 4 1 -23 -6 -17 -8 -16 -19 7 -7
16 -8 26 -2 26 6 0 10 -6 10 -12z m-10 -38 c0 -5 -4 -10 -10 -10 -5 0 -10 5
-10 10 0 6 5 10 10 10 6 0 10 -4 10 -10z m136 -35 c3 -18 13 -36 21 -39 8 -4
13 -13 10 -20 -3 -8 -2 -16 2 -18 4 -2 22 -32 39 -67 18 -35 32 -62 32 -59 0
4 14 -7 30 -22 17 -15 30 -34 30 -42 0 -8 11 -24 25 -36 13 -12 27 -32 31 -46
3 -13 12 -27 21 -30 8 -3 11 -11 8 -17 -4 -6 7 -24 24 -41 18 -18 31 -41 31
-55 0 -13 4 -21 10 -18 6 3 10 -1 10 -9 0 -8 9 -20 20 -26 11 -6 20 -17 20
-24 0 -8 7 -17 16 -20 9 -3 14 -11 12 -18 -2 -6 5 -21 16 -32 35 -36 101 -119
101 -126 0 -4 16 -23 35 -43 19 -20 43 -46 53 -59 75 -98 259 -278 300 -294
10 -3 17 -10 17 -15 0 -11 17 -34 44 -57 11 -9 47 -41 80 -70 231 -203 240
-215 156 -207 -59 6 -270 79 -382 133 -172 81 -479 277 -633 402 -94 77 -320
311 -395 410 -33 43 -60 80 -60 82 0 2 9 4 20 5 14 1 20 -4 20 -18 0 -13 7
-19 21 -19 18 0 19 -2 9 -15 -15 -18 -5 -34 12 -17 8 8 17 7 33 -4 14 -9 26
-11 29 -5 7 11 -3 41 -13 41 -7 0 -31 44 -31 55 0 3 8 5 18 5 11 0 26 -16 39
-42 l22 -43 0 53 c1 28 -3 52 -9 52 -5 0 -10 7 -10 16 0 11 6 15 20 11 16 -4
20 0 20 19 0 19 7 26 30 31 35 7 44 43 10 43 -11 0 -20 -4 -20 -10 0 -5 -9
-10 -20 -10 -11 0 -20 5 -20 10 0 6 9 10 21 10 18 0 20 5 18 70 -2 61 -4 70
-21 70 -11 0 -16 -4 -13 -10 3 -6 -1 -7 -9 -4 -25 9 -19 24 9 24 14 0 25 5 25
10 0 6 -7 10 -16 10 -10 0 -14 6 -10 15 3 8 -3 19 -12 25 -15 8 -15 11 -2 19
18 12 40 -4 40 -30 0 -11 5 -19 10 -19 12 0 13 23 1 36 -4 5 -5 32 -1 59 4 28
8 44 9 38 3 -27 21 -11 21 18 0 39 17 29 26 -16z m-92 -51 c27 -10 18 -21 -14
-16 -16 2 -30 8 -30 13 0 10 21 12 44 3z m-343 -166 l23 -33 -27 24 c-15 14
-27 28 -27 33 0 15 8 8 31 -24z m149 -240 c0 -12 -1 -19 -3 -17 -1 2 -9 12
-16 22 -12 14 -11 17 3 17 10 0 16 -8 16 -22z"/>
<path d="M10560 24980 c0 -11 4 -20 9 -20 5 0 7 9 4 20 -3 11 -7 20 -9 20 -2
0 -4 -9 -4 -20z"/>
<path d="M10568 24883 c6 -2 18 -2 25 0 6 3 1 5 -13 5 -14 0 -19 -2 -12 -5z"/>
<path d="M10397 24454 c3 -8 11 -14 19 -14 21 0 17 17 -5 23 -14 3 -18 1 -14
-9z"/>
<path d="M21557 29539 c-126 -17 -188 -59 -207 -140 -24 -99 22 -179 154 -268
167 -113 602 -342 796 -419 175 -71 560 -203 570 -197 5 3 10 2 12 -2 6 -14
145 -54 164 -47 14 4 16 3 5 -4 -10 -7 -3 -12 30 -20 24 -6 64 -16 88 -22 29
-7 47 -7 56 0 6 5 15 7 18 3 4 -3 7 -2 7 4 0 19 -28 23 -33 5 -4 -14 -6 -12
-12 6 -7 20 -12 23 -38 18 -21 -4 -36 -1 -48 10 -10 9 -25 14 -34 10 -9 -3
-13 -2 -10 4 3 6 -2 10 -12 11 -52 2 -68 8 -88 31 -19 23 -23 24 -33 9 -10
-15 -11 -15 -6 0 3 10 0 20 -7 25 -8 4 -10 3 -5 -4 4 -7 1 -12 -8 -12 -9 0
-16 5 -16 11 0 5 -4 7 -10 4 -5 -3 -10 -1 -10 5 0 7 -6 10 -14 7 -8 -3 -17 0
-20 8 -3 8 -13 11 -25 8 -11 -3 -30 3 -43 12 -22 17 -17 16 26 -1 14 -5 17 -4
12 4 -4 7 -14 12 -22 12 -8 0 -14 5 -14 10 0 15 -17 12 -35 -6 -15 -15 -17
-15 -22 5 -3 11 -11 21 -18 21 -6 0 -20 9 -31 21 -18 19 -19 20 -32 2 -9 -12
-15 -14 -20 -6 -4 6 -25 25 -47 43 -28 22 -46 29 -62 25 -17 -4 -25 0 -30 12
-4 10 -13 28 -21 41 -12 19 -16 20 -26 8 -13 -18 -37 -16 -61 4 -16 14 -17 13
-11 -8 6 -16 3 -22 -8 -22 -9 0 -16 5 -16 10 0 6 -10 10 -23 10 -24 0 -47 17
-47 35 0 5 5 3 10 -5 5 -8 10 -10 10 -4 0 5 13 9 30 8 16 -1 27 2 24 7 -3 5
-10 7 -15 4 -5 -4 -12 1 -15 9 -3 9 -10 16 -16 16 -5 0 -6 -4 -3 -10 8 -12 3
-13 -29 0 -18 6 -24 14 -20 25 5 11 0 18 -14 22 -11 2 -22 13 -25 24 -3 10 -4
19 -2 19 10 0 145 -71 150 -79 3 -6 12 -8 19 -5 8 3 22 -5 32 -18 11 -13 29
-23 41 -22 13 1 28 -5 34 -12 6 -8 18 -14 25 -14 7 0 28 -8 46 -18 18 -10 42
-21 53 -24 11 -3 74 -27 140 -53 66 -26 126 -47 133 -48 6 0 12 -4 12 -9 0 -4
11 -8 25 -8 14 0 25 -3 25 -8 0 -7 21 -17 90 -42 41 -15 112 -46 154 -66 16
-8 36 -14 45 -13 10 0 12 2 3 6 -6 2 -10 9 -6 14 3 5 -6 9 -19 9 -14 0 -30 7
-37 15 -7 8 -18 15 -24 15 -6 0 -45 14 -86 31 -41 18 -84 35 -95 40 -11 4 -56
23 -100 42 -44 19 -125 54 -180 77 -143 60 -361 167 -575 283 -227 123 -297
167 -278 178 17 9 300 16 285 7 -7 -4 20 -8 58 -7 68 0 69 0 42 15 -24 13 -31
13 -45 2 -13 -11 -15 -11 -10 3 3 9 2 22 -2 30 -7 11 -10 10 -16 -4 -9 -25
-24 -21 -24 6 0 16 9 28 28 37 l27 12 -47 15 c-27 7 -48 18 -48 24 0 6 4 8 9
4 5 -3 12 3 14 12 4 17 5 17 6 1 1 -23 17 -23 29 -2 11 19 4 54 -10 54 -5 0
-6 5 -3 10 11 18 35 11 29 -7 -5 -15 -3 -15 10 1 11 13 13 23 6 30 -17 17 -12
47 8 45 40 -4 73 2 67 11 -4 6 5 10 19 10 14 0 26 -4 26 -8 0 -5 6 -9 13 -10
65 -7 107 -8 107 -2 0 8 -31 13 -210 36 -141 18 -550 26 -643 13z m500 -231
c-3 -7 -5 -2 -5 12 0 14 2 19 5 13 2 -7 2 -19 0 -25z m-94 -250 c57 -41 60
-46 43 -63 -19 -19 -32 -20 -16 0 10 12 9 18 -4 31 -20 19 -34 11 -17 -10 7
-8 8 -17 3 -20 -5 -3 -15 7 -22 23 -6 16 -18 32 -26 35 -16 6 -19 26 -4 26 6
0 25 -10 43 -22z m123 -81 c8 -25 7 -28 -3 -24 -5 1 -7 6 -5 10 1 4 -7 3 -18
-3 -16 -8 -20 -8 -20 4 0 46 33 55 46 13z m39 -37 c-3 -5 0 -10 7 -10 10 0 9
-3 -2 -9 -20 -13 -34 -2 -19 15 13 16 23 19 14 4z m79 -96 c3 -8 2 -12 -4 -9
-6 3 -10 10 -10 16 0 14 7 11 14 -7z m246 -84 c3 -1 9 -2 13 -1 5 1 6 -2 3 -7
-6 -10 -66 -3 -66 7 0 7 35 7 50 1z m110 -60 c0 -5 -4 -10 -10 -10 -5 0 -10 5
-10 10 0 6 5 10 10 10 6 0 10 -4 10 -10z"/>
<path d="M22438 29483 c7 -3 16 -2 19 1 4 3 -2 6 -13 5 -11 0 -14 -3 -6 -6z"/>
<path d="M22498 29473 c6 -2 18 -2 25 0 6 3 1 5 -13 5 -14 0 -19 -2 -12 -5z"/>
<path d="M26253 29341 c-92 -112 -136 -178 -123 -186 10 -6 11 -5 14 14 0 6
11 19 23 31 13 11 26 32 29 45 3 14 9 25 13 25 9 0 75 90 70 95 -2 1 -14 -9
-26 -24z"/>
<path d="M26530 29360 c-8 -5 -12 -12 -9 -15 4 -3 12 1 19 10 14 17 11 19 -10
5z"/>
<path d="M11895 29336 c-16 -6 -25 -15 -19 -18 5 -4 21 2 34 13 29 22 26 23
-15 5z"/>
<path d="M26500 29342 c0 -6 -12 -18 -27 -26 -24 -13 -25 -15 -8 -16 20 0 52
37 41 48 -3 3 -6 0 -6 -6z"/>
<path d="M11788 29297 c-16 -6 -28 -15 -28 -20 0 -4 -4 -6 -8 -3 -5 3 -9 -1
-9 -8 0 -19 49 -2 73 25 19 21 13 22 -28 6z"/>
<path d="M26440 29280 c0 -5 4 -10 9 -10 6 0 13 5 16 10 3 6 -1 10 -9 10 -9 0
-16 -4 -16 -10z"/>
<path d="M11688 29253 c-21 -8 -35 -19 -32 -24 3 -5 -2 -6 -10 -3 -12 5 -156
-61 -156 -72 0 -6 56 2 69 10 6 4 9 11 6 16 -3 4 2 11 11 14 22 9 26 8 18 -5
-4 -7 -1 -10 7 -7 8 3 13 11 12 17 -2 7 10 9 33 6 32 -4 36 -2 31 15 -3 11 -1
17 4 14 15 -9 46 5 46 21 0 8 -1 15 -1 14 -1 0 -18 -7 -38 -16z"/>
<path d="M26410 29261 c0 -5 -3 -18 -7 -28 -6 -16 -5 -16 10 -4 19 15 23 41 7
41 -5 0 -10 -4 -10 -9z"/>
<path d="M22225 29230 c3 -5 8 -10 11 -10 2 0 4 5 4 10 0 6 -5 10 -11 10 -5 0
-7 -4 -4 -10z"/>
<path d="M11740 29210 c-9 -6 -10 -10 -3 -10 6 0 15 5 18 10 8 12 4 12 -15 0z"/>
<path d="M26347 29184 c-16 -14 -25 -29 -22 -32 4 -4 13 2 22 13 8 11 18 19
23 18 4 -1 11 4 14 12 8 22 -6 18 -37 -11z"/>
<path d="M22268 29193 c6 -2 18 -2 25 0 6 3 1 5 -13 5 -14 0 -19 -2 -12 -5z"/>
<path d="M22343 29183 c9 -2 23 -2 30 0 6 3 -1 5 -18 5 -16 0 -22 -2 -12 -5z"/>
<path d="M11633 29155 c-3 -9 -3 -19 1 -22 3 -4 6 1 6 10 0 8 6 18 13 20 9 4
9 6 -1 6 -7 1 -15 -6 -19 -14z"/>
<path d="M22458 29163 c7 -3 16 -2 19 1 4 3 -2 6 -13 5 -11 0 -14 -3 -6 -6z"/>
<path d="M26104 29138 c-4 -7 -23 -37 -42 -66 -26 -41 -29 -50 -13 -40 11 7
18 14 16 17 -3 2 9 19 25 38 17 18 30 40 30 48 0 18 -6 19 -16 3z"/>
<path d="M26301 29145 c-2 -16 -88 -104 -95 -98 -3 4 -6 -1 -6 -11 0 -10 -5
-14 -12 -10 -7 4 -8 3 -4 -4 10 -16 32 -3 84 52 28 29 42 51 39 63 -3 10 -5
14 -6 8z"/>
<path d="M11617 29023 c6 -14 63 -18 63 -4 0 5 -15 11 -34 13 -24 3 -32 0 -29
-9z"/>
<path d="M25912 28841 c-288 -440 -290 -458 -21 -161 47 52 101 113 120 135
19 22 40 45 48 51 12 9 11 12 -3 17 -9 4 -16 2 -16 -4 0 -5 -12 -22 -28 -37
-15 -15 -37 -40 -50 -56 -22 -28 -23 -29 -37 -10 -11 16 -11 22 -1 39 7 11 28
47 47 80 18 33 37 63 41 66 8 5 20 49 14 49 -2 0 -54 -76 -114 -169z"/>
<path d="M26150 28984 c-8 -13 -19 -24 -26 -24 -14 0 -47 -47 -36 -53 4 -3 28
17 54 43 33 33 43 50 34 53 -8 3 -19 -5 -26 -19z"/>
<path d="M11448 28993 c6 -2 18 -2 25 0 6 3 1 5 -13 5 -14 0 -19 -2 -12 -5z"/>
<path d="M11720 28981 c0 -11 5 -23 10 -26 6 -4 10 5 10 19 0 14 -4 26 -10 26
-5 0 -10 -9 -10 -19z"/>
<path d="M11328 28983 c6 -2 18 -2 25 0 6 3 1 5 -13 5 -14 0 -19 -2 -12 -5z"/>
<path d="M11568 28983 c6 -2 18 -2 25 0 6 3 1 5 -13 5 -14 0 -19 -2 -12 -5z"/>
<path d="M11657 28979 c-9 -6 -21 -8 -26 -4 -5 3 -12 1 -15 -4 -3 -5 11 -11
32 -13 20 -3 46 -8 57 -12 15 -5 15 -4 -2 5 -12 6 -23 18 -25 25 -2 9 -8 10
-21 3z"/>
<path d="M11325 28920 c-3 -5 1 -10 10 -10 9 0 13 5 10 10 -3 6 -8 10 -10 10
-2 0 -7 -4 -10 -10z"/>
<path d="M22263 28878 c3 -9 1 -19 -6 -22 -9 -3 -9 -5 0 -5 18 -1 23 13 11 29
-8 12 -9 12 -5 -2z"/>
<path d="M22620 28679 c0 -5 5 -7 10 -4 6 3 10 8 10 11 0 2 -4 4 -10 4 -5 0
-10 -5 -10 -11z"/>
<path d="M23310 28460 c8 -5 22 -9 30 -9 10 0 8 3 -5 9 -27 12 -43 12 -25 0z"/>
<path d="M23260 28419 c0 -6 -7 -9 -15 -5 -8 3 -15 1 -15 -4 0 -11 11 -13 34
-4 18 7 22 24 6 24 -5 0 -10 -5 -10 -11z"/>
<path d="M23285 28400 c-3 -5 -2 -10 4 -10 5 0 13 5 16 10 3 6 2 10 -4 10 -5
0 -13 -4 -16 -10z"/>
<path d="M23669 28322 c-15 -18 -10 -20 105 -41 67 -13 129 -25 139 -28 9 -2
17 0 17 6 0 6 -12 13 -27 17 -16 3 -53 14 -83 24 -74 24 -120 32 -120 20 0 -6
-5 -10 -11 -10 -6 0 -9 7 -5 15 7 20 4 19 -15 -3z"/>
<path d="M15522 28203 c-6 -2 -10 -9 -6 -14 3 -5 -1 -9 -9 -9 -7 0 -20 -11
-27 -25 -7 -14 -17 -25 -22 -25 -4 0 -8 -5 -8 -12 0 -6 -10 -22 -22 -35 -12
-13 -23 -37 -24 -54 -1 -17 2 -27 6 -23 44 46 147 209 128 203 -2 0 -9 -3 -16
-6z"/>
<path d="M27890 28137 c-41 -29 -95 -62 -120 -72 -25 -10 -130 -60 -235 -111
-191 -92 -324 -175 -575 -357 -250 -181 -343 -252 -509 -390 -83 -69 -115 -79
-286 -96 -117 -12 -252 -45 -340 -83 -107 -47 -370 -214 -433 -276 -10 -9 -66
-57 -125 -107 -84 -71 -103 -91 -89 -97 13 -5 11 -7 -9 -7 -18 -1 -46 -21 -92
-68 -37 -38 -63 -69 -57 -71 13 -5 13 -42 0 -42 -5 0 -10 -9 -10 -20 0 -13 -7
-20 -19 -20 -27 0 -39 -65 -16 -90 15 -16 14 -18 -10 -24 -36 -9 -31 -27 5
-19 19 3 30 1 30 -6 0 -6 -9 -11 -20 -11 -11 0 -20 -4 -20 -10 0 -5 18 -10 40
-10 22 0 40 -4 40 -10 0 -5 -11 -10 -25 -10 -14 0 -25 -5 -25 -11 0 -8 12 -10
36 -6 30 5 34 4 24 -8 -7 -8 -24 -15 -39 -16 -14 0 -20 -3 -13 -6 6 -2 12 -19
11 -36 0 -18 -3 -26 -6 -19 -9 23 -25 12 -20 -14 2 -14 -2 -31 -10 -39 -8 -8
-12 -19 -9 -24 3 -5 -1 -11 -9 -15 -8 -3 -15 -10 -15 -16 0 -6 6 -8 13 -4 9 5
9 3 -1 -7 -7 -8 -20 -14 -30 -14 -9 0 -16 -5 -15 -11 1 -6 -12 -27 -30 -46
-18 -20 -40 -49 -49 -66 -10 -16 -31 -44 -48 -62 -16 -17 -29 -35 -29 -38 3
-21 -3 -32 -16 -32 -8 0 -15 -8 -15 -17 0 -9 -17 -33 -38 -52 -39 -36 -56 -64
-45 -75 4 -3 12 -1 20 5 11 10 11 15 1 27 -11 13 -10 15 3 10 18 -7 64 33 52
45 -3 4 -1 7 4 7 11 0 114 124 113 136 -1 3 10 14 25 25 14 12 23 25 19 30 -3
5 -2 8 3 7 5 -2 34 24 64 57 77 84 256 287 307 349 58 67 263 276 272 276 5 0
22 16 39 35 17 19 34 36 38 36 5 0 15 6 23 14 22 19 117 65 135 65 8 0 15 4
15 9 0 17 38 18 60 1 18 -14 30 -16 48 -9 13 5 28 7 33 3 5 -3 9 0 9 5 0 18
18 12 24 -7 5 -15 17 -19 53 -20 25 0 49 -6 53 -13 5 -7 19 -10 39 -6 37 8 54
-14 40 -51 -6 -14 -5 -30 1 -40 7 -14 9 -10 10 16 0 36 15 43 25 11 6 -17 9
-19 16 -8 6 10 9 10 9 2 0 -7 6 -10 14 -7 7 3 20 -2 29 -10 9 -9 26 -16 39
-17 13 0 32 -4 43 -9 19 -8 19 -8 -5 -18 -21 -9 -17 -10 30 -10 30 1 59 6 63
12 4 6 5 -1 1 -16 -7 -31 6 -37 30 -12 21 21 39 8 31 -23 -4 -18 -2 -23 7 -19
7 3 21 9 31 12 9 4 17 14 17 24 0 11 12 22 30 29 18 6 30 6 30 0 0 -5 -4 -9
-10 -9 -5 0 -10 -9 -10 -19 0 -11 -6 -22 -12 -24 -7 -3 2 -6 20 -6 26 -1 32 3
32 20 0 12 8 23 20 26 11 3 20 9 20 14 0 18 18 8 24 -13 5 -18 8 -20 15 -9 7
10 13 5 26 -22 19 -41 13 -79 -12 -70 -15 6 -15 7 1 13 16 5 16 7 2 19 -9 7
-16 20 -16 27 0 8 -4 14 -10 14 -5 0 -10 -7 -10 -15 0 -8 -5 -15 -12 -15 -6 0
-3 -6 7 -14 16 -12 17 -16 6 -30 -12 -14 -10 -16 20 -16 31 0 35 -4 46 -37 8
-26 8 -40 1 -44 -13 -9 -16 -99 -3 -100 5 -1 0 -4 -13 -7 -25 -8 -30 -29 -5
-24 8 2 12 -1 8 -7 -3 -6 -12 -11 -19 -11 -8 0 -12 -10 -10 -26 2 -18 -6 -34
-23 -50 -18 -17 -23 -29 -18 -45 4 -13 3 -19 -3 -15 -5 3 -17 -3 -27 -14 -10
-11 -15 -20 -12 -20 4 0 -2 -22 -13 -49 -10 -27 -20 -70 -21 -96 -2 -25 -6
-48 -11 -51 -4 -3 -8 -15 -9 -27 -1 -20 -2 -20 -9 3 -6 19 -8 12 -9 -31 -1
-43 -5 -58 -18 -63 -12 -5 -13 -10 -6 -17 11 -11 -3 -58 -45 -149 -8 -19 -17
-48 -19 -65 -2 -16 31 60 72 170 42 110 85 219 96 243 38 82 69 174 62 185 -3
5 -2 7 4 4 5 -3 20 20 33 51 73 179 220 481 347 717 152 280 176 323 231 413
187 305 520 783 668 959 77 91 47 100 -66 20z m-1500 -1041 c0 -3 -4 -8 -10
-11 -5 -3 -10 -1 -10 4 0 6 5 11 10 11 6 0 10 -2 10 -4z m-33 -123 c-3 -10 -5
-4 -5 12 0 17 2 24 5 18 2 -7 2 -21 0 -30z m-1277 -539 c0 -8 -5 -12 -10 -9
-6 4 -8 11 -5 16 9 14 15 11 15 -7z m1691 -4 c5 0 9 -4 9 -10 0 -14 -13 -12
-36 6 -17 14 -17 15 -1 10 10 -3 23 -6 28 -6z m-1716 -20 c3 -5 -1 -10 -10
-10 -9 0 -13 5 -10 10 3 6 8 10 10 10 2 0 7 -4 10 -10z m-12 -350 c-3 -11 -9
-20 -14 -20 -10 0 -12 24 -2 33 13 13 21 7 16 -13z"/>
<path d="M25187 28143 c-4 -6 0 -16 8 -23 8 -7 13 -16 10 -20 -3 -5 3 -15 13
-22 9 -7 17 -20 17 -28 -1 -16 50 -49 75 -49 12 0 12 2 -2 13 -10 7 -18 17
-18 22 0 18 -97 118 -103 107z"/>
<path d="M25151 28076 c10 -9 69 -36 69 -32 0 6 -55 36 -66 36 -4 0 -5 -2 -3
-4z"/>
<path d="M15366 27984 c-4 -9 -4 -19 -1 -22 3 -3 5 1 5 9 0 12 2 11 10 -1 7
-12 9 -10 7 8 -2 26 -12 29 -21 6z"/>
<path d="M15335 27909 c-4 -6 -5 -12 -2 -15 2 -3 7 2 10 11 7 17 1 20 -8 4z"/>
<path d="M15290 27835 c-7 -9 -10 -18 -7 -21 3 -3 10 4 17 15 13 25 8 27 -10
6z"/>
<path d="M15213 27703 c-3 -10 -8 -22 -10 -28 -3 -5 3 -1 11 9 16 20 21 36 11
36 -3 0 -8 -8 -12 -17z"/>
<path d="M28395 27691 c-261 -76 -438 -312 -403 -539 21 -139 157 -347 281
-430 20 -13 37 -27 37 -29 0 -3 -18 -28 -41 -57 -41 -52 -73 -73 -84 -56 -19
31 -176 -5 -305 -70 -134 -68 -184 -196 -109 -276 19 -20 33 -24 79 -24 78 0
201 33 277 75 35 19 68 35 73 35 17 0 11 -26 -11 -46 -12 -10 -47 -53 -77 -94
-80 -108 -158 -196 -195 -218 -19 -12 -81 -28 -149 -40 -131 -22 -156 -35
-218 -113 -106 -134 -109 -269 -15 -634 47 -183 71 -304 100 -500 37 -252 34
-379 -15 -728 -82 -587 -78 -530 -76 -1163 l2 -572 42 -85 c45 -90 148 -213
173 -205 31 10 31 34 1 98 -61 133 -64 171 -23 331 17 63 35 155 42 204 16
120 6 348 -21 505 -31 176 -24 398 18 625 17 88 38 246 48 350 15 167 16 214
5 388 -7 110 -17 223 -22 253 -5 30 -14 80 -19 112 -6 31 -13 163 -17 292 -9
368 18 616 74 658 10 7 49 12 97 12 l81 0 0 -242 c1 -212 3 -257 23 -351 67
-323 227 -552 696 -996 91 -87 122 -132 138 -201 18 -77 -4 -120 -127 -250
-126 -133 -183 -200 -295 -351 -158 -211 -214 -330 -279 -592 -31 -122 -32
-147 -9 -147 35 0 181 131 469 422 285 287 359 353 359 320 0 -4 -19 -35 -43
-67 -51 -71 -227 -342 -305 -470 -154 -251 -215 -487 -162 -627 77 -206 257
-221 572 -48 165 91 260 155 471 319 212 164 247 188 247 171 0 -12 -45 -62
-220 -245 -419 -437 -751 -929 -990 -1465 -68 -152 -120 -308 -120 -357 0 -42
-55 -84 -433 -330 -398 -259 -568 -351 -790 -424 -265 -88 -443 -89 -614 -6
-105 51 -212 168 -248 274 -55 157 -55 341 0 563 62 251 266 577 495 792 60
56 112 108 115 115 11 29 -28 9 -127 -66 -234 -179 -446 -472 -547 -757 -54
-150 -73 -249 -79 -391 -4 -121 -2 -139 22 -225 37 -128 88 -219 166 -298 86
-85 153 -123 275 -157 80 -21 122 -27 205 -27 318 1 607 104 1110 399 96 56
213 124 260 150 47 26 128 74 180 107 228 144 407 255 735 453 193 116 375
227 405 246 183 117 626 354 795 424 420 175 880 241 1082 154 140 -60 175
-145 114 -274 -52 -112 -167 -193 -437 -310 -169 -72 -378 -138 -525 -165
-107 -19 -119 -24 -101 -42 7 -7 79 -9 244 -5 225 5 238 6 373 40 205 52 297
83 423 143 245 116 370 245 418 433 18 72 17 83 -19 272 -55 282 -184 563
-406 879 -121 173 -300 365 -581 624 -175 161 -246 221 -500 416 -174 134
-369 301 -446 381 -86 91 -181 222 -222 307 -50 105 -53 170 -14 303 17 57 43
167 58 244 24 124 26 148 16 209 -16 103 -69 202 -143 270 -155 140 -350 199
-1040 315 -303 51 -532 99 -561 118 -5 2 -8 13 -8 24 0 41 45 44 395 23 98 -6
683 -66 860 -89 61 -7 131 -21 155 -29 69 -24 80 -22 80 18 0 74 -67 110 -269
149 -109 21 -144 22 -593 22 -262 0 -479 3 -483 7 -4 4 36 53 89 110 54 57
124 144 157 193 32 50 66 100 75 113 l15 23 62 -34 c34 -19 106 -60 160 -92
l98 -58 35 34 c45 43 125 152 153 206 46 92 105 253 93 253 -4 0 -45 -47 -91
-105 -46 -58 -108 -128 -137 -155 -61 -58 -42 -61 -191 27 -93 55 -143 94
-143 111 0 22 65 95 142 159 46 38 151 125 233 193 174 144 496 431 516 459 8
11 78 87 157 170 78 82 142 157 142 165 0 31 -36 15 -105 -45 -252 -221 -507
-411 -526 -392 -4 4 -19 46 -33 93 -29 100 -84 204 -142 269 -53 59 -179 131
-258 148 -89 19 -278 15 -351 -6z m-105 -2115 c41 -9 181 -34 310 -56 129 -23
279 -52 332 -65 208 -52 500 -176 570 -243 49 -46 109 -196 110 -277 0 -36
-16 -98 -57 -220 -106 -314 -89 -440 90 -653 127 -153 356 -342 863 -715 237
-173 457 -362 690 -592 321 -315 483 -539 607 -839 43 -105 118 -327 112 -333
-3 -2 -28 24 -57 59 -72 87 -141 143 -235 188 -140 68 -181 75 -430 75 -190
-1 -235 -4 -330 -24 -229 -48 -330 -82 -632 -214 -343 -150 -656 -345 -1373
-857 -313 -223 -366 -260 -374 -260 -4 0 4 17 17 38 13 20 52 91 87 157 185
354 337 608 529 885 281 406 439 598 817 992 202 209 243 291 149 291 -40 0
-204 -100 -495 -302 -373 -259 -536 -341 -679 -341 -74 0 -85 14 -89 108 -3
58 1 96 13 134 36 107 115 258 248 474 202 330 247 427 247 543 0 64 -29 134
-67 158 -31 20 -83 7 -165 -43 -80 -49 -101 -44 -55 13 46 57 78 115 104 190
22 64 28 96 28 173 0 88 -3 101 -36 176 -73 164 -194 315 -390 489 -305 269
-407 385 -498 570 -49 97 -131 328 -131 367 0 17 3 16 48 -6 26 -14 81 -32
122 -40z"/>
<path d="M15086 27415 c-9 -26 -7 -32 5 -12 6 10 9 21 6 23 -2 3 -7 -2 -11
-11z"/>
<path d="M14050 27318 c-94 -127 -130 -183 -126 -195 3 -8 2 -12 -3 -9 -13 8
-164 -261 -155 -275 4 -7 3 -9 -3 -6 -18 11 -116 -221 -183 -428 -42 -134 -93
-328 -130 -495 -90 -416 -131 -1102 -100 -1680 37 -690 45 -810 80 -1270 18
-232 32 -395 35 -398 2 -2 23 9 47 25 54 37 531 307 768 435 36 19 137 76 225
127 214 123 332 181 381 188 22 3 50 13 63 22 22 17 22 17 -21 15 -109 -5
-448 -37 -587 -55 -84 -11 -156 -17 -159 -14 -7 6 -16 149 -37 550 -35 682
-37 760 -32 1314 5 557 14 742 48 944 6 37 8 74 5 82 -3 8 -2 15 3 15 4 0 12
25 18 55 7 42 7 55 -3 55 -7 0 -10 -8 -7 -20 4 -14 0 -20 -11 -20 -10 0 -16
-8 -16 -21 0 -17 -4 -20 -22 -15 -13 3 -29 6 -35 6 -22 0 -14 18 10 23 l22 4
-22 2 c-16 1 -23 7 -23 21 0 10 -8 24 -17 29 -10 6 -13 11 -8 11 11 1 -35 29
-47 30 -5 0 -8 -7 -8 -15 0 -8 -9 -15 -20 -15 -11 0 -19 6 -17 13 1 6 -6 11
-15 11 -16 -2 -23 8 -19 29 1 4 -6 10 -14 13 -17 7 -21 74 -6 102 6 11 4 21
-4 29 -11 10 -18 8 -37 -7 -19 -16 -20 -19 -5 -20 24 0 22 -20 -3 -20 -11 0
-20 -7 -20 -15 0 -8 -4 -15 -10 -15 -5 0 -10 16 -10 35 0 24 -5 35 -15 35 -18
0 -20 -27 -2 -33 9 -3 9 -7 0 -19 -10 -11 -10 -17 0 -28 8 -8 8 -11 0 -6 -21
11 -45 -5 -41 -29 4 -18 1 -21 -19 -17 -19 4 -23 10 -23 43 0 22 5 39 10 39 6
0 10 -4 10 -10 0 -5 5 -10 11 -10 7 0 5 9 -5 23 -9 12 -19 30 -23 40 -3 9 -8
17 -12 17 -4 0 -14 6 -22 13 -8 6 -13 11 -11 10 8 -4 30 22 25 30 -2 4 -2 7 2
7 3 0 10 -10 15 -22 8 -22 9 -22 9 -2 1 11 -4 25 -9 30 -14 14 -3 41 15 41 8
0 15 -4 15 -9 0 -4 5 -8 10 -8 16 0 -23 49 -39 50 -15 0 -6 15 9 15 5 0 18 11
30 25 15 18 20 33 16 53 -3 15 -2 26 2 24 4 -3 13 1 20 9 10 11 10 14 -1 14
-9 0 -12 9 -9 30 3 19 10 30 20 30 12 0 13 -3 4 -12 -13 -13 -16 -38 -4 -38
10 0 33 61 26 71 -3 5 1 9 8 9 10 0 10 2 -1 9 -17 11 -6 31 19 31 12 0 17 6
15 18 -1 9 3 23 9 31 9 12 8 13 -4 7 -8 -4 -6 1 5 11 11 10 21 29 23 43 2 14
9 30 15 35 7 6 30 45 51 87 22 42 52 89 66 105 23 24 45 63 37 63 -2 0 -14
-15 -27 -32z m-293 -550 c-3 -8 -6 -5 -6 6 -1 11 2 17 5 13 3 -3 4 -12 1 -19z
m95 -350 c-7 -7 -12 -8 -12 -2 0 14 12 26 19 19 2 -3 -1 -11 -7 -17z m-32 -25
c0 -14 -19 -38 -25 -32 -8 8 5 39 16 39 5 0 9 -3 9 -7z m87 -9 c-3 -3 -12 -4
-19 -1 -8 3 -5 6 6 6 11 1 17 -2 13 -5z m43 -44 c0 -5 -11 -10 -25 -10 -14 0
-25 5 -25 10 0 6 11 10 25 10 14 0 25 -4 25 -10z m130 -110 c0 -5 -7 -10 -15
-10 -8 0 -15 5 -15 10 0 6 7 10 15 10 8 0 15 -4 15 -10z"/>
<path d="M17968 27043 c7 -3 16 -2 19 1 4 3 -2 6 -13 5 -11 0 -14 -3 -6 -6z"/>
<path d="M18477 26923 c-14 -13 -6 -20 18 -15 14 2 25 8 25 13 0 10 -34 12
-43 2z"/>
<path d="M18340 26900 c0 -24 22 -35 48 -25 15 6 14 8 -5 16 -13 4 -23 13 -23
19 0 5 -4 10 -10 10 -5 0 -10 -9 -10 -20z"/>
<path d="M20509 26872 c-3 -20 -2 -29 4 -23 5 5 7 19 5 32 -3 20 -5 19 -9 -9z"/>
<path d="M18165 26880 c-16 -7 -11 -9 20 -9 29 -1 36 2 25 9 -17 11 -19 11
-45 0z"/>
<path d="M18380 26841 c0 -18 18 -21 30 -6 10 13 9 15 -9 15 -11 0 -21 -4 -21
-9z"/>
<path d="M13795 26750 c3 -5 11 -10 16 -10 6 0 7 5 4 10 -3 6 -11 10 -16 10
-6 0 -7 -4 -4 -10z"/>
<path d="M13856 26714 c-11 -7 -18 -16 -15 -18 2 -2 13 2 23 10 11 7 18 16 15
18 -2 2 -13 -2 -23 -10z"/>
<path d="M13780 26704 c0 -8 5 -12 10 -9 6 4 8 11 5 16 -9 14 -15 11 -15 -7z"/>
<path d="M20586 26704 c-3 -9 -2 -23 4 -32 6 -11 10 -12 10 -4 0 9 5 10 19 2
25 -13 61 -13 61 0 0 6 9 10 20 10 13 0 20 7 20 20 0 23 -25 27 -34 5 -3 -10
-19 -15 -46 -15 -38 0 -54 13 -27 23 7 4 6 6 -4 6 -9 1 -20 -6 -23 -15z"/>
<path d="M13840 26639 c0 -5 5 -7 10 -4 6 3 10 8 10 11 0 2 -4 4 -10 4 -5 0
-10 -5 -10 -11z"/>
<path d="M20625 26620 c-16 -18 -16 -20 -2 -20 10 0 17 5 17 10 0 6 9 10 20
10 11 0 20 5 20 10 0 17 -36 11 -55 -10z"/>
<path d="M13910 26615 c0 -8 4 -15 10 -15 5 0 7 7 4 15 -4 8 -8 15 -10 15 -2
0 -4 -7 -4 -15z"/>
<path d="M13790 26606 c0 -9 7 -16 16 -16 9 0 14 5 12 12 -6 18 -28 21 -28 4z"/>
<path d="M13745 26589 c-11 -16 -1 -19 13 -3 7 8 8 14 3 14 -5 0 -13 -5 -16
-11z"/>
<path d="M13792 26558 c3 -7 15 -14 29 -15 14 -1 17 0 7 3 -10 3 -18 10 -18
15 0 5 -5 9 -11 9 -6 0 -9 -6 -7 -12z"/>
<path d="M13760 26544 c0 -8 5 -12 10 -9 6 4 8 11 5 16 -9 14 -15 11 -15 -7z"/>
<path d="M17866 26544 c-3 -9 -6 -48 -6 -87 0 -139 -58 -428 -115 -582 -14
-37 -23 -70 -20 -73 9 -10 25 20 25 49 0 14 6 31 13 38 6 6 12 15 13 19 0 4 3
18 7 32 3 14 9 38 12 54 5 23 8 27 16 15 7 -12 9 -11 9 3 0 9 -6 19 -12 21 -9
4 -8 6 2 6 11 1 16 15 18 49 3 53 20 120 21 87 2 -20 2 -20 13 -1 9 17 22 386
13 386 -2 0 -6 -7 -9 -16z"/>
<path d="M13760 26510 c0 -5 5 -10 11 -10 5 0 7 5 4 10 -3 6 -8 10 -11 10 -2
0 -4 -4 -4 -10z"/>
<path d="M26205 26470 c3 -5 8 -10 11 -10 2 0 4 5 4 10 0 6 -5 10 -11 10 -5 0
-7 -4 -4 -10z"/>
<path d="M14030 26440 c0 -5 5 -10 10 -10 6 0 10 5 10 10 0 6 -4 10 -10 10 -5
0 -10 -4 -10 -10z"/>
<path d="M26340 26400 c-13 -8 -12 -10 3 -10 9 0 17 5 17 10 0 12 -1 12 -20 0z"/>
<path d="M14202 26380 c0 -14 2 -19 5 -12 2 6 2 18 0 25 -3 6 -5 1 -5 -13z"/>
<path d="M26420 26383 c0 -10 4 -24 9 -32 7 -11 10 -9 16 8 7 22 0 41 -16 41
-5 0 -9 -8 -9 -17z"/>
<path d="M14050 26380 c0 -5 6 -10 14 -10 8 0 18 5 21 10 3 6 -3 10 -14 10
-12 0 -21 -4 -21 -10z"/>
<path d="M26380 26380 c0 -5 5 -10 10 -10 6 0 10 5 10 10 0 6 -4 10 -10 10 -5
0 -10 -4 -10 -10z"/>
<path d="M26580 26371 c-41 -6 -42 -7 -17 -12 33 -7 67 -1 67 12 0 5 -1 8 -2
7 -2 0 -23 -4 -48 -7z"/>
<path d="M26510 26340 c0 -11 5 -20 10 -20 6 0 10 9 10 20 0 11 -4 20 -10 20
-5 0 -10 -9 -10 -20z"/>
<path d="M14126 26335 c-3 -8 -1 -15 4 -15 6 0 10 7 10 15 0 8 -2 15 -4 15 -2
0 -6 -7 -10 -15z"/>
<path d="M24941 26337 c-8 -10 -7 -14 4 -14 8 0 15 6 15 14 0 7 -2 13 -4 13
-2 0 -9 -6 -15 -13z"/>
<path d="M26675 26300 c-3 -6 1 -13 9 -16 9 -3 16 -15 16 -25 0 -10 5 -19 10
-19 16 0 11 37 -6 44 -8 3 -12 10 -9 16 3 5 2 10 -4 10 -5 0 -13 -5 -16 -10z"/>
<path d="M24895 26290 c-3 -5 1 -10 10 -10 9 0 13 5 10 10 -3 6 -8 10 -10 10
-2 0 -7 -4 -10 -10z"/>
<path d="M24880 26120 c-24 -30 -28 -40 -16 -40 9 0 16 6 16 14 0 8 9 18 20
21 11 3 20 15 20 26 0 27 -4 25 -40 -21z"/>
<path d="M24952 26060 c0 -14 2 -19 5 -12 2 6 2 18 0 25 -3 6 -5 1 -5 -13z"/>
<path d="M17706 25774 c-4 -9 -4 -19 -1 -22 2 -3 7 3 11 12 4 9 4 19 1 22 -2
3 -7 -3 -11 -12z"/>
<path d="M17687 25725 c-4 -8 -3 -16 1 -19 4 -3 9 4 9 15 2 23 -3 25 -10 4z"/>
<path d="M17652 25638 c-10 -30 -10 -31 3 -14 13 17 21 46 12 46 -1 0 -8 -15
-15 -32z"/>
<path d="M24600 25463 c0 -8 5 -13 12 -11 18 6 21 25 3 25 -8 0 -15 -7 -15
-14z"/>
<path d="M24572 25425 c4 -4 3 -14 -4 -22 -6 -7 -9 -15 -7 -18 3 -2 10 4 17
15 9 15 9 21 -1 26 -6 4 -9 4 -5 -1z"/>
<path d="M24530 25360 c0 -13 -4 -19 -12 -14 -7 4 -8 3 -4 -4 10 -16 14 -15
26 7 7 13 7 22 0 26 -5 3 -10 -3 -10 -15z"/>
<path d="M24497 25313 c-4 -3 -7 -11 -7 -17 0 -6 5 -5 12 2 6 6 9 14 7 17 -3
3 -9 2 -12 -2z"/>
<path d="M26402 25240 c0 -14 2 -19 5 -12 2 6 2 18 0 25 -3 6 -5 1 -5 -13z"/>
<path d="M20320 25230 c0 -5 7 -10 15 -10 8 0 15 5 15 10 0 6 -7 10 -15 10 -8
0 -15 -4 -15 -10z"/>
<path d="M20340 25200 c0 -12 48 -25 58 -16 8 9 -18 26 -40 26 -10 0 -18 -4
-18 -10z"/>
<path d="M26371 25144 c0 -11 3 -14 6 -6 3 7 2 16 -1 19 -3 4 -6 -2 -5 -13z"/>
<path d="M20237 25100 c3 -11 7 -20 9 -20 2 0 4 9 4 20 0 11 -4 20 -9 20 -5 0
-7 -9 -4 -20z"/>
<path d="M26361 25104 c0 -11 3 -14 6 -6 3 7 2 16 -1 19 -3 4 -6 -2 -5 -13z"/>
<path d="M26326 24994 c-4 -14 -5 -28 -3 -31 3 -2 8 8 11 23 4 14 5 28 3 31
-3 2 -8 -8 -11 -23z"/>
<path d="M14812 24930 c0 -19 2 -27 5 -17 2 9 2 25 0 35 -3 9 -5 1 -5 -18z"/>
<path d="M20132 24916 c-8 -21 -12 -40 -9 -43 9 -8 28 37 25 59 -2 17 -6 14
-16 -16z"/>
<path d="M26291 24888 c0 -9 -4 -25 -7 -35 -5 -17 -5 -17 6 0 6 10 9 25 7 35
-4 15 -5 15 -6 0z"/>
<path d="M18619 24813 c-13 -16 -12 -17 4 -4 9 7 17 15 17 17 0 8 -8 3 -21
-13z"/>
<path d="M20092 24794 c-8 -27 -8 -33 2 -25 10 8 21 61 13 61 -2 0 -9 -16 -15
-36z"/>
<path d="M21257 24723 c-3 -5 1 -21 8 -38 7 -16 14 -24 14 -17 1 6 10 12 21
12 15 0 20 7 20 25 0 21 -5 25 -29 25 -17 0 -32 -3 -34 -7z"/>
<path d="M20060 24701 c0 -5 -3 -16 -6 -25 -3 -9 -2 -16 3 -16 5 0 10 11 11
25 1 14 0 25 -3 25 -3 0 -5 -4 -5 -9z"/>
<path d="M18446 24644 c-5 -14 -4 -15 9 -4 17 14 19 20 6 20 -5 0 -12 -7 -15
-16z"/>
<path d="M18405 24610 c-3 -5 -2 -10 4 -10 5 0 13 5 16 10 3 6 2 10 -4 10 -5
0 -13 -4 -16 -10z"/>
<path d="M18369 24573 c-13 -16 -12 -17 4 -4 9 7 17 15 17 17 0 8 -8 3 -21
-13z"/>
<path d="M21280 24560 c0 -5 5 -10 10 -10 6 0 10 5 10 10 0 6 -4 10 -10 10 -5
0 -10 -4 -10 -10z"/>
<path d="M21340 24558 c0 -11 28 -10 35 1 3 6 -4 9 -15 8 -11 -1 -20 -5 -20
-9z"/>
<path d="M18305 24526 c-11 -12 -33 -32 -49 -44 -16 -12 -25 -22 -20 -22 13 0
100 77 94 83 -3 2 -14 -5 -25 -17z"/>
<path d="M21280 24520 c0 -5 5 -10 10 -10 6 0 10 5 10 10 0 6 -4 10 -10 10 -5
0 -10 -4 -10 -10z"/>
<path d="M21340 24520 c0 -5 7 -7 15 -4 8 4 15 8 15 10 0 2 -7 4 -15 4 -8 0
-15 -4 -15 -10z"/>
<path d="M21668 24505 c2 -15 11 -25 21 -24 10 0 11 2 4 6 -7 2 -13 13 -13 24
0 10 -4 19 -9 19 -4 0 -6 -11 -3 -25z"/>
<path d="M14853 24405 c0 -27 2 -38 4 -22 2 15 2 37 0 50 -2 12 -4 0 -4 -28z"/>
<path d="M21640 24420 c0 -5 -9 -10 -20 -10 -11 0 -20 -4 -20 -10 0 -5 9 -10
20 -10 11 0 20 4 20 8 0 5 10 14 23 20 l22 11 -22 0 c-13 1 -23 -3 -23 -9z"/>
<path d="M18165 24410 c-3 -5 -2 -10 4 -10 5 0 13 5 16 10 3 6 2 10 -4 10 -5
0 -13 -4 -16 -10z"/>
<path d="M21363 24413 c9 -2 23 -2 30 0 6 3 -1 5 -18 5 -16 0 -22 -2 -12 -5z"/>
<path d="M21520 24399 c0 -5 5 -7 10 -4 6 3 10 8 10 11 0 2 -4 4 -10 4 -5 0
-10 -5 -10 -11z"/>
<path d="M18109 24370 c-30 -32 -32 -45 -3 -20 16 14 33 27 37 31 4 3 2 6 -5
5 -7 0 -20 -7 -29 -16z"/>
<path d="M19935 24379 c-4 -6 -5 -12 -2 -15 2 -3 7 2 10 11 7 17 1 20 -8 4z"/>
<path d="M21130 24365 c0 -8 4 -15 10 -15 5 0 7 7 4 15 -4 8 -8 15 -10 15 -2
0 -4 -7 -4 -15z"/>
<path d="M17336 24325 c-11 -8 -17 -15 -14 -15 4 0 13 -3 22 -6 11 -4 14 0 13
15 -1 12 -1 21 -2 21 0 0 -9 -7 -19 -15z"/>
<path d="M21120 24333 c0 -15 18 -35 23 -27 3 5 -1 15 -9 22 -8 7 -14 9 -14 5z"/>
<path d="M21480 24310 c0 -5 5 -10 10 -10 6 0 10 5 10 10 0 6 -4 10 -10 10 -5
0 -10 -4 -10 -10z"/>
<path d="M17273 24279 c-6 -6 -20 -16 -31 -23 -71 -40 -182 -111 -211 -135
l-34 -28 69 -15 c61 -14 144 -28 256 -42 23 -3 38 0 41 7 5 15 112 13 131 -2
8 -7 20 -10 25 -7 5 4 13 2 16 -4 9 -14 34 -6 130 42 91 45 108 58 71 51 -14
-3 -26 -9 -26 -14 0 -5 -7 -9 -15 -9 -9 0 -33 -11 -55 -25 -51 -32 -91 -38
-137 -21 -21 8 -69 17 -107 19 -42 3 -72 10 -78 18 -7 11 -11 11 -15 2 -7 -18
-23 -16 -23 2 0 8 -9 15 -20 15 -11 0 -20 4 -20 8 0 5 9 17 20 27 11 10 20 26
20 37 0 11 -7 18 -20 18 -13 0 -20 7 -20 20 0 11 7 20 15 20 9 0 19 8 22 18 4
9 11 20 17 24 8 5 8 8 1 8 -6 0 -16 -5 -22 -11z"/>
<path d="M17981 24281 c-8 -6 -9 -11 -3 -15 6 -3 14 -1 17 5 9 14 2 20 -14 10z"/>
<path d="M17915 24230 c4 -6 11 -8 16 -5 14 9 11 15 -7 15 -8 0 -12 -5 -9 -10z"/>
<path d="M17890 24209 c0 -5 5 -7 10 -4 6 3 10 8 10 11 0 2 -4 4 -10 4 -5 0
-10 -5 -10 -11z"/>
<path d="M17849 24183 c-13 -17 -13 -17 6 -3 11 8 22 16 24 17 2 2 0 3 -6 3
-6 0 -17 -8 -24 -17z"/>
<path d="M17800 24160 c-13 -8 -13 -10 2 -10 9 0 20 5 23 10 8 13 -5 13 -25 0z"/>
<path d="M21112 24110 c0 -19 2 -27 5 -17 2 9 2 25 0 35 -3 9 -5 1 -5 -18z"/>
<path d="M21123 24001 c0 -11 5 -18 9 -15 4 3 5 11 1 19 -7 21 -12 19 -10 -4z"/>
<path d="M14883 23935 c0 -22 2 -30 4 -17 2 12 2 30 0 40 -3 9 -5 -1 -4 -23z"/>
<path d="M21131 23903 c0 -29 3 -53 7 -53 4 0 6 17 4 38 -6 64 -10 69 -11 15z"/>
<path d="M19726 23903 c-6 -14 -5 -15 5 -6 7 7 10 15 7 18 -3 3 -9 -2 -12 -12z"/>
<path d="M16571 23830 c-29 -11 -200 -96 -380 -189 -179 -93 -351 -182 -381
-197 -49 -24 -284 -150 -460 -247 -144 -79 -329 -175 -600 -311 -385 -194
-684 -363 -1129 -637 -34 -21 -65 -39 -67 -39 -3 0 -17 -9 -32 -19 -90 -63
-302 -199 -302 -194 0 3 -8 -3 -17 -14 -21 -23 -63 -47 -63 -36 0 9 64 54 93
65 10 4 15 12 12 18 -3 5 0 10 8 10 8 0 22 9 32 20 10 11 21 17 25 15 4 -3 10
2 14 10 3 8 11 15 18 15 8 0 20 9 28 20 8 11 19 20 25 20 5 0 22 10 37 23 14
12 40 33 57 47 16 14 30 34 31 45 0 15 7 21 27 23 34 3 39 8 23 27 -11 13 -16
12 -41 -8 -15 -12 -29 -31 -29 -42 -2 -17 -3 -16 -10 5 -8 24 -8 24 -9 3 -1
-17 -7 -23 -23 -23 -17 0 -19 3 -9 9 11 7 11 9 0 14 -10 4 -10 6 -1 6 6 1 12
10 12 20 0 11 -6 22 -12 25 -7 4 -3 4 10 2 12 -2 22 -1 22 3 0 14 -36 41 -53
41 -20 0 -22 11 -5 28 9 9 2 11 -32 8 -46 -4 -64 6 -67 39 -1 11 0 14 3 7 3
-6 10 -10 15 -7 5 4 6 -2 2 -11 -4 -12 -3 -15 6 -10 7 5 11 16 8 26 -6 22 5
41 26 44 16 2 63 54 55 61 -12 12 -572 -382 -723 -509 -393 -331 -651 -603
-923 -970 -234 -316 -425 -734 -501 -1092 -57 -272 -66 -364 -66 -669 1 -262
2 -290 28 -430 55 -301 92 -414 218 -670 143 -291 255 -449 489 -686 393 -397
695 -572 1381 -799 266 -88 434 -130 703 -175 483 -80 773 -100 1371 -92 429
6 525 11 770 48 369 54 639 121 1105 271 284 91 689 271 982 436 251 141 537
346 773 555 184 163 475 473 468 499 -2 4 1 8 6 8 5 0 34 34 65 75 31 41 52
75 46 75 -5 0 -16 -13 -25 -30 -9 -16 -22 -30 -30 -30 -8 0 -15 -9 -15 -20 0
-18 -11 -25 -33 -21 -5 1 -6 -3 -2 -9 3 -5 -5 -21 -19 -34 -14 -13 -26 -30
-26 -39 0 -9 -5 -19 -12 -23 -7 -4 -8 -3 -4 4 4 7 2 12 -3 12 -6 0 -11 -6 -11
-14 0 -8 -13 -25 -28 -38 -15 -12 -28 -27 -28 -33 0 -5 -12 -16 -28 -24 -22
-10 -25 -15 -15 -22 11 -7 11 -9 1 -9 -7 0 -39 -28 -72 -61 -39 -42 -62 -59
-72 -54 -7 5 -10 4 -5 0 9 -11 -21 -45 -40 -45 -8 0 -12 -4 -9 -9 4 -5 -7 -12
-24 -16 -16 -4 -30 -10 -30 -15 0 -4 -15 -11 -34 -14 -22 -4 -36 -13 -39 -26
-3 -11 -17 -24 -31 -30 -14 -5 -26 -16 -26 -25 0 -8 -4 -15 -10 -15 -14 0 -12
11 5 30 11 13 13 23 6 41 l-9 24 -11 -27 c-7 -18 -16 -26 -25 -22 -9 3 -17 -3
-21 -15 -3 -12 -13 -21 -22 -21 -9 0 -13 6 -9 15 3 9 0 15 -8 15 -16 0 -30 27
-27 53 3 22 -30 58 -37 39 -4 -14 -42 -16 -42 -2 0 6 5 10 10 10 6 0 10 7 10
15 0 8 5 15 10 15 6 0 10 5 10 11 0 10 -43 7 -90 -6 -12 -4 -14 4 -12 40 3 28
0 45 -7 45 -6 0 -11 -4 -11 -10 0 -5 -9 -10 -20 -10 -11 0 -20 5 -20 10 0 12
-36 14 -43 3 -2 -5 -2 -2 0 5 1 8 3 20 3 28 0 8 9 14 20 14 26 0 26 17 -1 25
-14 5 -17 10 -10 14 6 4 10 18 10 32 -1 13 0 30 2 38 2 7 -2 16 -8 18 -7 3
-13 -2 -13 -11 0 -9 -8 -16 -20 -16 -27 0 -27 44 1 90 14 24 -6 8 -63 -50 -99
-100 -196 -191 -257 -240 -24 -19 -48 -40 -55 -45 -66 -60 -237 -194 -306
-241 -25 -17 -74 -51 -110 -75 -218 -151 -589 -348 -860 -457 -418 -167 -955
-315 -1302 -357 -375 -45 -1024 -45 -1418 0 -69 8 -150 20 -180 26 -30 6 -73
15 -95 19 -22 5 -49 10 -60 13 -11 3 -85 19 -165 37 -80 17 -174 40 -210 49
-36 10 -101 28 -145 41 -80 22 -172 52 -210 69 -11 5 -40 18 -65 28 -196 80
-551 301 -704 439 -76 69 -108 114 -46 63 54 -42 76 -56 67 -42 -4 6 0 13 8
17 18 6 19 1 5 -25 -10 -18 -8 -21 16 -18 3 0 14 -11 25 -26 12 -14 24 -23 29
-20 16 10 62 -15 56 -30 -5 -13 -2 -14 15 -4 17 8 23 7 35 -8 8 -10 13 -13 14
-5 0 18 18 15 25 -5 3 -10 16 -25 28 -35 33 -23 97 -4 97 29 0 13 -4 23 -10
23 -5 0 -10 -9 -10 -20 0 -18 -1 -18 -25 4 -30 28 -32 52 -6 61 10 3 18 12 17
20 -1 17 0 18 51 9 26 -4 40 -11 36 -17 -4 -6 0 -8 10 -4 8 3 18 0 20 -8 3 -7
23 -19 44 -26 21 -6 55 -23 76 -36 20 -13 37 -21 37 -18 0 3 31 -10 68 -30 38
-19 74 -35 80 -35 7 0 12 -4 12 -10 0 -5 8 -10 19 -10 10 0 29 -8 42 -18 14
-10 41 -17 66 -17 24 0 43 -3 43 -7 0 -4 7 -4 17 -1 10 4 14 2 10 -4 -4 -6 -1
-13 7 -16 8 -3 17 0 20 8 3 9 -10 18 -40 29 -24 8 -44 12 -44 8 0 -4 -4 -2 -8
3 -6 9 -61 33 -87 38 -5 2 -15 6 -21 9 -6 4 -23 12 -38 18 -21 8 -26 7 -21 -3
4 -6 0 -4 -8 5 -8 10 -17 15 -20 11 -4 -3 -7 -1 -7 6 0 7 -4 9 -10 6 -5 -3
-10 -1 -10 5 0 6 -4 9 -9 6 -4 -3 -19 3 -32 14 -12 12 -34 23 -48 27 -14 3
-28 9 -31 13 -12 15 -69 50 -83 50 -9 0 -17 4 -19 8 -2 5 -52 42 -113 82 -226
151 -362 270 -498 440 -264 329 -370 574 -428 990 -36 265 9 593 122 875 144
359 378 715 674 1024 420 438 1019 877 1770 1296 22 12 96 51 164 85 68 35
167 87 220 118 53 30 222 118 376 197 154 78 350 180 435 227 315 172 741 388
911 462 241 104 321 110 539 37 246 -82 449 -200 685 -398 236 -199 404 -397
574 -676 119 -196 258 -550 302 -771 7 -36 16 -66 20 -66 4 0 6 8 4 18 -1 9 2
23 8 30 5 7 7 15 4 18 -3 3 -1 19 3 35 6 18 5 29 -2 29 -5 0 -8 6 -5 13 2 6
13 11 23 9 18 -3 18 -3 2 14 -16 16 -16 18 0 31 15 13 14 14 -10 8 -33 -7 -34
-5 -7 26 17 20 22 21 30 9 5 -8 8 -25 6 -38 -4 -19 1 -24 25 -29 16 -3 26 -9
21 -12 -22 -14 -21 -40 3 -62 21 -19 24 -20 24 -5 0 24 24 46 50 46 19 0 22
-4 18 -30 -3 -17 -1 -33 4 -36 4 -3 8 2 8 10 0 9 9 16 20 16 11 0 20 -4 20
-10 0 -5 9 -10 19 -10 11 0 21 -6 24 -12 3 -7 4 11 2 40 l-2 52 36 -1 c30 -2
32 -3 9 -6 -16 -2 -28 -9 -28 -14 0 -15 57 -10 74 6 18 19 33 19 52 1 19 -20
18 -26 -5 -26 -11 0 -22 -6 -24 -12 -4 -10 -8 -10 -15 0 -7 11 -10 10 -16 -3
-9 -25 -9 -25 34 -25 22 0 40 -4 40 -10 0 -5 10 -10 23 -10 12 0 30 -12 41
-26 15 -21 16 -30 7 -50 -9 -21 -8 -24 8 -24 18 0 41 37 41 65 0 8 5 15 10 15
13 0 13 -76 0 -101 -6 -10 -7 -19 -2 -19 5 0 14 10 21 23 l12 22 -5 -22 c-4
-21 0 -23 40 -23 l44 0 0 40 c0 22 4 40 9 40 13 0 19 -43 9 -69 -4 -13 -4 -20
1 -16 5 3 12 -3 14 -12 2 -10 3 -3 1 14 -5 58 15 45 27 -17 7 -38 17 -60 25
-60 8 0 14 -9 14 -20 0 -11 -5 -20 -12 -20 -6 0 -4 -8 6 -19 10 -10 13 -21 7
-22 -5 -2 -12 -21 -16 -41 -7 -34 -5 -38 14 -38 18 0 21 -6 21 -41 0 -24 7
-47 17 -57 16 -16 16 -17 0 -20 -23 -5 -21 -22 2 -22 15 0 20 -9 25 -42 14
-104 19 -128 27 -128 4 0 10 -48 12 -107 1 -60 4 -6 5 119 2 242 -7 335 -54
583 -71 369 -149 573 -333 879 -128 213 -272 387 -502 611 -285 277 -465 403
-856 599 -258 128 -433 204 -613 263 -277 92 -445 114 -559 73z m-3266 -1410
c-4 -6 -2 -17 5 -25 15 -17 4 -23 -47 -22 -42 0 -42 0 -20 18 12 9 24 13 25 8
2 -5 11 -9 19 -9 12 0 13 3 4 14 -9 11 -9 15 1 19 19 8 20 8 13 -3z m95 -44
c0 -2 -7 -7 -16 -10 -8 -3 -12 -2 -9 4 6 10 25 14 25 6z m-195 -16 c-3 -5 2
-10 12 -10 17 -1 17 -1 0 -11 -9 -5 -21 -7 -27 -4 -5 3 -18 -3 -30 -15 -11
-11 -20 -15 -20 -7 1 6 15 22 33 34 38 25 40 26 32 13z m5285 -200 c12 -8 11
-10 -7 -10 -13 0 -23 5 -23 10 0 13 11 13 30 0z m5 -50 c-3 -5 -13 -10 -21
-10 -8 0 -14 5 -14 10 0 6 9 10 21 10 11 0 17 -4 14 -10z m85 -125 c0 -8 -4
-15 -10 -15 -5 0 -10 7 -10 15 0 8 5 15 10 15 6 0 10 -7 10 -15z m-64 -40 c-3
-21 -13 -28 -27 -19 -9 5 -7 11 6 21 23 16 24 16 21 -2z m44 -35 c0 -5 7 -10
15 -10 8 0 15 -4 15 -10 0 -14 -23 -13 -38 2 -15 15 -16 28 -2 28 6 0 10 -4
10 -10z m26 -208 c1 -24 -1 -28 -11 -19 -10 9 -10 16 -2 25 8 10 7 16 -4 24
-12 8 -12 9 1 6 8 -3 15 -18 16 -36z m454 -42 c0 -5 -4 -10 -10 -10 -5 0 -10
5 -10 10 0 6 5 10 10 10 6 0 10 -4 10 -10z m-355 -20 c3 -5 1 -10 -4 -10 -6 0
-11 5 -11 10 0 6 2 10 4 10 3 0 8 -4 11 -10z m-105 -31 c0 -5 -4 -9 -10 -9 -5
0 -10 7 -10 16 0 8 5 12 10 9 6 -3 10 -10 10 -16z m637 -161 c-3 -7 -5 -2 -5
12 0 14 2 19 5 13 2 -7 2 -19 0 -25z m43 -38 c0 -5 -4 -10 -10 -10 -5 0 -10 5
-10 10 0 6 5 10 10 10 6 0 10 -4 10 -10z m217 -557 c-3 -10 -5 -2 -5 17 0 19
2 27 5 18 2 -10 2 -26 0 -35z m-877 -2703 c0 -5 -4 -10 -10 -10 -5 0 -10 5
-10 10 0 6 5 10 10 10 6 0 10 -4 10 -10z m-6700 -95 c5 -14 16 -25 25 -25 8 0
15 -4 15 -10 0 -21 -26 -9 -43 19 -18 30 -21 41 -12 41 3 0 10 -11 15 -25z
m63 -73 c-3 -7 11 -29 31 -49 20 -20 36 -43 36 -51 0 -9 3 -13 6 -9 8 8 64
-50 64 -66 0 -12 -119 107 -152 153 -23 30 -22 36 1 36 11 0 17 -5 14 -14z
m6844 -128 c-3 -3 -12 -4 -19 -1 -8 3 -5 6 6 6 11 1 17 -2 13 -5z m-6630 -109
c9 -25 -2 -27 -22 -5 -17 18 -17 20 -1 20 9 0 19 -7 23 -15z m353 -95 c0 -5
-4 -10 -10 -10 -5 0 -10 5 -10 10 0 6 5 10 10 10 6 0 10 -4 10 -10z m-160 -60
c0 -5 -2 -10 -4 -10 -3 0 -8 5 -11 10 -3 6 -1 10 4 10 6 0 11 -4 11 -10z m285
-11 c7 -7 -1 -9 -24 -7 -19 2 -37 9 -39 17 -4 11 2 12 24 7 16 -4 34 -12 39
-17z m8 -71 c-10 -11 -19 -15 -21 -8 -5 15 18 41 30 34 5 -3 1 -15 -9 -26z
m-183 8 c0 -2 -7 -6 -15 -10 -8 -3 -15 -1 -15 4 0 6 7 10 15 10 8 0 15 -2 15
-4z m200 -102 c0 -14 -4 -23 -10 -19 -5 3 -10 15 -10 26 0 10 5 19 10 19 6 0
10 -12 10 -26z"/>
<path d="M21143 23775 c0 -38 2 -53 4 -32 2 20 2 52 0 70 -2 17 -4 1 -4 -38z"/>
<path d="M14892 23730 c0 -19 2 -27 5 -17 2 9 2 25 0 35 -3 9 -5 1 -5 -18z"/>
<path d="M19526 23482 c-4 -7 15 -33 51 -66 68 -63 88 -66 22 -3 -24 24 -49
52 -55 62 -7 13 -13 15 -18 7z"/>
<path d="M21177 23260 c3 -74 8 -137 10 -140 8 -8 -1 238 -9 257 -4 10 -5 -43
-1 -117z"/>
<path d="M19766 23240 c67 -69 154 -163 194 -210 41 -47 77 -86 82 -88 4 -2
12 8 18 23 12 31 13 55 2 40 -20 -27 -54 -10 -114 59 -64 72 -221 231 -274
276 -16 13 25 -32 92 -100z"/>
<path d="M21901 23224 c0 -11 3 -14 6 -6 3 7 2 16 -1 19 -3 4 -6 -2 -5 -13z"/>
<path d="M21912 23170 c0 -14 2 -19 5 -12 2 6 2 18 0 25 -3 6 -5 1 -5 -13z"/>
<path d="M21922 23120 c0 -14 2 -19 5 -12 2 6 2 18 0 25 -3 6 -5 1 -5 -13z"/>
<path d="M21931 23054 c0 -11 3 -14 6 -6 3 7 2 16 -1 19 -3 4 -6 -2 -5 -13z"/>
<path d="M21192 22985 c0 -16 2 -22 5 -12 2 9 2 23 0 30 -3 6 -5 -1 -5 -18z"/>
<path d="M21192 22920 c0 -14 2 -19 5 -12 2 6 2 18 0 25 -3 6 -5 1 -5 -13z"/>
<path d="M21202 22745 c0 -16 2 -22 5 -12 2 9 2 23 0 30 -3 6 -5 -1 -5 -18z"/>
<path d="M21214 22490 c0 -52 1 -74 3 -47 2 26 2 68 0 95 -2 26 -3 4 -3 -48z"/>
<path d="M21213 22355 c0 -22 2 -30 4 -17 2 12 2 30 0 40 -3 9 -5 -1 -4 -23z"/>
<path d="M14970 22204 c-36 -20 -173 -98 -305 -174 -132 -76 -337 -192 -455
-260 -209 -118 -403 -242 -583 -372 l-87 -63 -4 -730 c-3 -669 -5 -743 -24
-885 -35 -269 -68 -399 -178 -701 -85 -237 -154 -374 -309 -614 -117 -181
-141 -220 -143 -230 -2 -10 239 -9 338 1 199 20 387 77 595 181 282 142 471
305 687 595 310 416 446 759 529 1331 19 135 35 332 23 294 -3 -10 -10 -14
-17 -10 -8 4 -7 1 1 -9 15 -18 7 -61 -14 -79 -18 -15 -19 -50 -1 -43 9 3 12
-6 9 -37 -3 -28 -7 -37 -13 -28 -13 22 -12 -7 2 -33 9 -18 9 -20 -4 -15 -9 3
-21 -1 -27 -9 -7 -8 -9 -14 -4 -14 5 0 1 -7 -10 -15 -10 -8 -16 -21 -13 -29 4
-9 -1 -20 -11 -25 -9 -6 -12 -11 -7 -11 6 0 12 -11 13 -25 1 -18 -3 -25 -17
-25 -16 0 -17 -5 -11 -40 4 -22 3 -43 -1 -46 -5 -3 -9 -4 -10 -2 0 2 -2 10 -4
19 -1 9 -6 27 -11 40 l-8 24 -5 -24 c-6 -23 -7 -23 -21 -5 -9 10 -10 15 -2 10
15 -9 16 16 0 32 -8 8 -8 15 2 27 11 13 7 15 -29 15 -22 0 -41 5 -41 11 0 5
-4 8 -9 5 -5 -3 -12 1 -15 10 -4 12 -15 15 -36 12 -35 -5 -35 -5 -15 16 14 14
13 16 -12 22 -15 4 -38 18 -51 31 -12 12 -27 23 -33 23 -6 0 -8 4 -5 9 8 12
54 20 60 9 2 -5 3 -3 2 4 -2 9 -21 12 -66 10 -56 -3 -61 -1 -47 13 9 8 27 15
41 15 14 0 26 5 26 10 0 6 -11 10 -24 10 -37 0 -56 10 -56 30 0 12 -12 23 -35
31 -24 9 -31 16 -25 24 6 7 5 16 -2 23 -16 16 -28 15 -28 -3 0 -8 -7 -15 -15
-15 -8 0 -15 -4 -15 -10 0 -5 -4 -10 -10 -10 -5 0 -10 20 -10 45 0 35 -3 43
-14 39 -11 -4 -18 4 -24 28 -8 32 -9 30 -16 -29 -4 -36 -13 -67 -23 -74 -8 -7
-19 -22 -23 -34 -5 -11 -7 21 -5 75 2 52 7 291 11 530 l6 435 31 40 c195 251
607 665 663 665 8 0 14 5 14 10 0 13 4 15 -70 -26z m-650 -1763 c0 -6 -4 -13
-10 -16 -5 -3 -10 1 -10 9 0 9 5 16 10 16 6 0 10 -4 10 -9z m520 -272 c0 -6
-4 -7 -10 -4 -5 3 -10 11 -10 16 0 6 5 7 10 4 6 -3 10 -11 10 -16z m0 -33 c0
-3 -4 -8 -10 -11 -5 -3 -10 -1 -10 4 0 6 5 11 10 11 6 0 10 -2 10 -4z m25 -26
c3 -5 1 -10 -4 -10 -6 0 -11 5 -11 10 0 6 2 10 4 10 3 0 8 -4 11 -10z m10 -30
c3 -5 2 -10 -4 -10 -5 0 -13 5 -16 10 -3 6 -2 10 4 10 5 0 13 -4 16 -10z m22
-72 c-3 -7 -5 -2 -5 12 0 14 2 19 5 13 2 -7 2 -19 0 -25z"/>
<path d="M24142 21900 c0 -14 2 -19 5 -12 2 6 2 18 0 25 -3 6 -5 1 -5 -13z"/>
<path d="M18910 21550 c0 -5 5 -10 10 -10 6 0 10 5 10 10 0 6 -4 10 -10 10 -5
0 -10 -4 -10 -10z"/>
<path d="M18621 21521 c-11 -7 -11 -10 0 -15 11 -5 11 -7 2 -12 -7 -3 -13 -16
-13 -29 0 -13 -4 -27 -10 -30 -5 -3 -10 -15 -10 -26 0 -11 4 -18 8 -15 5 3 8
-9 8 -27 0 -18 11 -115 24 -217 19 -151 24 -233 24 -445 1 -143 -2 -307 -6
-365 -4 -76 -4 -94 3 -65 5 22 12 155 15 295 3 140 8 262 10 270 4 13 6 13 14
0 6 -8 10 -13 11 -10 0 3 2 13 4 23 2 9 -1 17 -7 17 -6 0 -8 9 -5 21 4 15 2
19 -9 15 -8 -3 -14 -1 -14 4 0 6 10 10 23 10 15 0 18 3 9 9 -12 7 -14 16 -12
61 2 28 -8 119 -14 138 -5 13 -1 22 11 26 13 5 14 9 5 15 -15 9 -26 111 -13
111 5 0 7 9 4 20 -3 11 -13 20 -23 20 -20 0 -31 53 -19 87 4 10 2 23 -3 30 -5
6 -7 30 -4 52 2 23 4 41 3 41 -1 0 -8 -4 -16 -9z m49 -220 c0 -6 -4 -13 -10
-16 -5 -3 -10 1 -10 9 0 9 5 16 10 16 6 0 10 -4 10 -9z"/>
<path d="M18690 21515 c0 -5 5 -17 10 -25 5 -8 10 -10 10 -5 0 6 -5 17 -10 25
-5 8 -10 11 -10 5z"/>
<path d="M18910 21510 c0 -5 5 -10 10 -10 6 0 10 5 10 10 0 6 -4 10 -10 10 -5
0 -10 -4 -10 -10z"/>
<path d="M18642 21460 c0 -14 2 -19 5 -12 2 6 2 18 0 25 -3 6 -5 1 -5 -13z"/>
<path d="M19235 21330 c-6 -10 7 -14 33 -11 6 1 12 -5 12 -12 0 -16 -27 -30
-40 -22 -5 3 -11 1 -15 -5 -4 -6 4 -10 19 -10 39 0 56 10 56 35 0 30 -50 50
-65 25z"/>
<path d="M19128 21323 c6 -2 18 -2 25 0 6 3 1 5 -13 5 -14 0 -19 -2 -12 -5z"/>
<path d="M19200 21238 c0 -7 5 -20 10 -28 8 -12 10 -9 10 13 0 15 -4 27 -10
27 -5 0 -10 -6 -10 -12z"/>
<path d="M19147 21220 c3 -11 7 -20 9 -20 2 0 4 9 4 20 0 11 -4 20 -9 20 -5 0
-7 -9 -4 -20z"/>
<path d="M19245 21230 c-3 -5 3 -10 15 -10 12 0 18 5 15 10 -3 6 -10 10 -15
10 -5 0 -12 -4 -15 -10z"/>
<path d="M19320 21220 c0 -11 5 -20 10 -20 6 0 10 9 10 20 0 11 -4 20 -10 20
-5 0 -10 -9 -10 -20z"/>
<path d="M19240 21200 c0 -5 7 -10 15 -10 8 0 15 5 15 10 0 6 -7 10 -15 10 -8
0 -15 -4 -15 -10z"/>
<path d="M19365 20990 c3 -5 8 -10 11 -10 2 0 4 5 4 10 0 6 -5 10 -11 10 -5 0
-7 -4 -4 -10z"/>
<path d="M24094 20725 c0 -77 2 -107 3 -67 2 40 2 103 0 140 -2 37 -3 4 -3
-73z"/>
<path d="M15063 20640 c0 -25 2 -35 4 -22 2 12 2 32 0 45 -2 12 -4 2 -4 -23z"/>
<path d="M19481 20574 c0 -11 3 -14 6 -6 3 7 2 16 -1 19 -3 4 -6 -2 -5 -13z"/>
<path d="M19463 20440 c-20 -152 -24 -218 -13 -193 5 12 10 51 12 85 2 35 7
66 11 69 4 3 7 35 5 70 l-3 64 -12 -95z"/>
<path d="M24104 20435 c0 -55 1 -76 3 -47 2 29 2 74 0 100 -2 26 -3 2 -3 -53z"/>
<path d="M14720 20341 c0 -12 5 -21 10 -21 6 0 10 6 10 14 0 8 -4 18 -10 21
-5 3 -10 -3 -10 -14z"/>
<path d="M24111 20271 c-2 -49 36 -367 65 -551 41 -259 94 -492 206 -902 6
-21 15 -38 20 -38 5 0 7 -4 3 -10 -7 -11 47 -175 104 -318 55 -140 131 -294
124 -254 -5 27 -3 31 11 26 9 -3 16 -1 16 5 0 6 -4 11 -10 11 -5 0 -10 8 -10
18 0 27 -11 34 -24 16 -10 -13 -12 -13 -12 5 0 11 4 17 8 15 4 -3 8 2 8 10 0
8 -4 18 -10 21 -15 9 -12 35 4 29 10 -4 12 2 9 19 -4 19 0 27 18 32 l22 7 -24
14 c-13 7 -18 13 -11 14 16 0 16 37 0 42 -9 3 -8 9 4 21 22 22 27 21 21 -3 -6
-22 22 -29 30 -7 4 9 8 8 16 -3 6 -8 11 -19 11 -25 0 -5 -4 -3 -10 5 -8 12
-10 12 -16 -4 -4 -11 -2 -21 7 -27 12 -8 12 -10 0 -18 -9 -6 -10 -11 -2 -15 6
-4 9 -12 6 -17 -4 -5 1 -9 9 -9 8 0 18 -9 21 -20 6 -20 35 -28 35 -10 0 6 9
10 20 10 11 0 20 -4 20 -10 0 -5 7 -10 15 -10 8 0 15 -4 15 -10 0 -5 11 -10
25 -10 23 0 25 4 25 40 l0 40 40 0 c38 0 40 -2 40 -30 0 -16 5 -30 10 -30 6 0
10 9 10 20 0 16 7 20 30 20 17 0 30 -4 30 -10 0 -5 18 -10 40 -10 l40 0 0 40
c0 22 5 40 10 40 6 0 10 -9 10 -19 0 -12 9 -21 25 -25 15 -4 32 -21 44 -44 11
-21 27 -44 35 -51 9 -7 14 -17 11 -21 -3 -4 2 -13 10 -20 8 -7 15 -18 15 -25
0 -13 49 -106 60 -115 4 -3 10 -17 14 -32 3 -16 13 -28 22 -28 9 0 14 -6 11
-13 -3 -8 8 -26 23 -41 16 -15 32 -36 35 -47 4 -11 17 -31 31 -46 13 -14 21
-29 18 -34 -3 -5 4 -21 15 -35 12 -15 21 -32 21 -38 0 -6 16 -26 35 -45 19
-18 35 -38 35 -44 0 -7 9 -18 20 -25 11 -7 20 -18 20 -25 0 -7 11 -25 25 -40
14 -15 24 -27 21 -27 -2 0 9 -14 26 -30 17 -17 32 -30 33 -28 2 2 -21 37 -51
78 -134 186 -209 309 -312 515 -136 272 -222 495 -283 735 -34 137 -44 182
-94 465 -27 155 -38 195 -37 135 0 -25 12 -102 17 -110 3 -6 -1 -10 -10 -10
-12 0 -14 -4 -5 -19 13 -25 13 -61 0 -61 -14 0 -1 -99 20 -145 13 -30 16 -52
10 -85 -6 -42 -7 -43 -14 -17 -5 15 -6 36 -3 47 3 13 -1 24 -14 30 -15 8 -19
7 -19 -5 0 -8 4 -15 9 -15 12 0 20 -91 9 -112 -9 -19 -48 -25 -48 -7 0 5 -4 7
-10 4 -16 -10 -12 -25 6 -25 19 0 43 -28 44 -50 0 -8 -9 -21 -20 -28 -11 -7
-20 -8 -20 -3 0 6 5 13 10 16 6 3 10 16 10 27 0 20 -1 20 -18 5 -20 -19 -52
-23 -52 -7 0 6 7 10 15 10 8 0 15 4 15 9 0 16 -31 34 -65 37 -29 3 -35 0 -35
-16 0 -21 -16 -28 -22 -10 -6 19 -39 -14 -41 -40 -2 -32 -47 -70 -47 -40 0 6
7 10 15 10 12 0 15 13 15 55 0 47 -3 55 -18 55 -11 0 -27 -9 -36 -19 -9 -10
-28 -21 -42 -24 -19 -3 -24 0 -24 15 0 28 -34 19 -38 -10 -3 -16 0 -20 12 -16
12 4 16 0 16 -15 0 -12 5 -21 12 -21 9 0 9 -3 -1 -12 -10 -11 -15 -9 -27 6
-14 19 -14 19 -14 -2 0 -13 -6 -22 -15 -22 -19 0 -56 31 -49 42 3 4 -2 8 -11
8 -12 0 -15 6 -10 21 7 20 4 21 -33 14 -39 -6 -40 -5 -47 24 -3 17 -4 35 0 41
3 5 -1 10 -10 10 -14 0 -16 -8 -13 -41 3 -35 2 -38 -9 -22 -8 9 -11 24 -8 31
3 8 5 22 5 32 0 11 9 21 23 24 12 2 5 4 -15 2 -43 -2 -41 -9 -43 109 -1 44 2
85 7 91 5 8 3 14 -7 18 -20 7 -19 26 2 26 23 0 12 9 -18 13 -23 4 -24 8 -27
75 -2 54 -6 72 -17 72 -8 0 -17 5 -20 10 -4 6 -3 10 2 9 20 -3 25 2 14 15 -12
15 -20 69 -24 157 -1 33 -6 45 -14 42 -13 -5 -14 3 -18 97 -2 65 -17 150 -27
150 -5 0 -6 -5 -2 -12 4 -7 3 -8 -4 -4 -8 4 -12 37 -12 87 0 52 -4 79 -11 79
-8 0 -7 6 2 17 8 9 9 14 2 10 -17 -10 -22 16 -6 28 12 9 12 19 5 45 l-10 35
-3 -40 c-1 -29 -5 -15 -14 50 -7 50 -13 75 -14 56z m899 -1022 c0 -3 -7 -6
-15 -6 -15 0 -20 18 -8 30 6 7 22 -10 23 -24z m-570 -348 c0 -5 -9 -11 -20
-14 -13 -3 -20 0 -20 9 0 8 9 14 20 14 11 0 20 -4 20 -9z m400 -1 c0 -5 -9
-10 -20 -10 -11 0 -20 5 -20 10 0 6 9 10 20 10 11 0 20 -4 20 -10z m-370 -34
c0 -8 2 -21 5 -28 4 -9 -2 -14 -16 -15 -15 -1 -19 2 -15 13 3 9 6 22 6 30 0 8
5 14 10 14 6 0 10 -6 10 -14z m190 4 c0 -5 -4 -10 -10 -10 -5 0 -10 5 -10 10
0 6 5 10 10 10 6 0 10 -4 10 -10z m-95 -52 c6 -20 8 -20 12 -5 2 9 9 17 15 17
5 0 7 -6 4 -12 -3 -7 -9 -20 -12 -29 -4 -11 -14 -14 -30 -11 -23 4 -24 2 -19
-24 11 -48 14 -56 24 -50 5 3 15 -1 22 -10 11 -13 10 -17 -4 -25 -12 -7 -15
-17 -11 -36 5 -18 4 -24 -5 -19 -14 9 -27 -22 -14 -35 11 -11 48 35 39 49 -2
4 9 8 25 9 26 2 29 -1 29 -27 0 -17 5 -30 10 -30 6 0 10 -4 10 -10 0 -14 -47
-12 -54 3 -5 10 -7 10 -12 0 -3 -7 -17 -13 -31 -13 -20 0 -23 -4 -18 -20 5
-14 2 -20 -9 -20 -19 0 -22 36 -3 43 8 3 3 13 -15 30 -27 25 -38 44 -18 32 6
-3 7 1 4 9 -3 9 -10 14 -14 11 -5 -3 -11 -1 -15 5 -3 5 1 10 9 10 19 0 22 40
4 40 -7 1 -2 10 11 20 14 12 18 20 10 20 -11 0 -11 2 0 9 9 6 14 24 13 50 -2
34 1 41 17 41 11 0 22 -10 26 -22z m332 -10 c-3 -7 -5 -2 -5 12 0 14 2 19 5
13 2 -7 2 -19 0 -25z m-487 -3 c0 -8 -2 -15 -4 -15 -2 0 -6 7 -10 15 -3 8 -1
15 4 15 6 0 10 -7 10 -15z m94 -10 c6 -17 -2 -45 -14 -45 -5 0 -10 6 -13 13
-3 9 -7 9 -20 -1 -13 -11 -15 -11 -13 1 2 18 28 46 42 47 7 0 14 -7 18 -15z
m326 5 c0 -5 -4 -10 -10 -10 -5 0 -10 5 -10 10 0 6 5 10 10 10 6 0 10 -4 10
-10z m-150 -10 c0 -5 -4 -10 -10 -10 -5 0 -10 5 -10 10 0 6 5 10 10 10 6 0 10
-4 10 -10z m70 0 c0 -5 -7 -10 -15 -10 -8 0 -15 5 -15 10 0 6 7 10 15 10 8 0
15 -4 15 -10z m210 0 c0 -5 -9 -10 -20 -10 -11 0 -20 5 -20 10 0 6 9 10 20 10
11 0 20 -4 20 -10z m-335 -30 c7 -22 -2 -60 -15 -60 -4 0 -10 9 -13 20 -6 24
2 60 13 60 5 0 12 -9 15 -20z m-45 -20 c0 -5 -4 -10 -10 -10 -5 0 -10 5 -10
10 0 6 5 10 10 10 6 0 10 -4 10 -10z m-92 -7 c-10 -2 -26 -2 -35 0 -10 3 -2 5
17 5 19 0 27 -2 18 -5z m12 -167 c0 -3 -4 -8 -10 -11 -5 -3 -10 -1 -10 4 0 6
5 11 10 11 6 0 10 -2 10 -4z m560 -54 c0 -13 -12 -22 -22 -16 -10 6 -1 24 13
24 5 0 9 -4 9 -8z m100 -22 c0 -5 -9 -10 -20 -10 -11 0 -20 5 -20 10 0 6 9 10
20 10 11 0 20 -4 20 -10z m-560 -26 c0 -14 -3 -14 -15 -4 -8 7 -15 14 -15 16
0 2 7 4 15 4 8 0 15 -7 15 -16z m510 -15 c0 -5 -4 -9 -10 -9 -5 0 -10 7 -10
16 0 8 5 12 10 9 6 -3 10 -10 10 -16z m-120 -29 c0 -11 -7 -20 -15 -20 -8 0
-15 9 -15 20 0 11 7 20 15 20 8 0 15 -9 15 -20z m177 -2 c-3 -8 -6 -5 -6 6 -1
11 2 17 5 13 3 -3 4 -12 1 -19z m-574 -19 c4 -16 3 -18 -9 -8 -7 6 -11 15 -8
20 8 13 11 11 17 -12z"/>
<path d="M24516 18674 c-8 -21 -8 -24 3 -24 5 0 11 9 14 20 6 24 -8 27 -17 4z"/>
<path d="M24480 18780 c0 -5 5 -10 10 -10 6 0 10 5 10 10 0 6 -4 10 -10 10 -5
0 -10 -4 -10 -10z"/>
<path d="M24142 20270 c0 -14 2 -19 5 -12 2 6 2 18 0 25 -3 6 -5 1 -5 -13z"/>
<path d="M14790 20261 c0 -12 39 -25 48 -16 7 7 -17 25 -35 25 -7 0 -13 -4
-13 -9z"/>
<path d="M24140 20220 c0 -5 5 -10 11 -10 5 0 7 5 4 10 -3 6 -8 10 -11 10 -2
0 -4 -4 -4 -10z"/>
<path d="M18632 20195 c0 -16 2 -22 5 -12 2 9 2 23 0 30 -3 6 -5 -1 -5 -18z"/>
<path d="M14920 20190 c0 -5 5 -10 10 -10 6 0 10 5 10 10 0 6 -4 10 -10 10 -5
0 -10 -4 -10 -10z"/>
<path d="M14890 20180 c0 -5 5 -10 10 -10 6 0 10 5 10 10 0 6 -4 10 -10 10 -5
0 -10 -4 -10 -10z"/>
<path d="M18618 20099 c-4 -30 -11 -71 -14 -90 -4 -18 -4 -31 0 -27 4 3 9 12
10 20 2 7 6 25 10 39 4 14 6 45 4 70 l-3 44 -7 -56z"/>
<path d="M29325 20028 c-49 -151 -79 -278 -110 -471 -9 -54 -29 -157 -46 -230
-64 -281 -74 -355 -84 -597 -7 -174 -17 -281 -55 -585 -32 -261 -47 -444 -54
-659 l-5 -149 24 36 c14 19 47 77 75 129 111 203 161 322 224 538 91 311 103
485 56 840 -40 305 -45 371 -44 595 0 215 5 274 41 523 4 29 2 42 -6 42 -6 0
-13 -6 -16 -12z"/>
<path d="M18585 19930 c-4 -23 -5 -43 -2 -46 2 -3 7 14 11 37 4 23 5 44 2 46
-2 2 -7 -14 -11 -37z"/>
<path d="M28410 19915 c0 -5 5 -17 10 -25 5 -8 10 -10 10 -5 0 6 -5 17 -10 25
-5 8 -10 11 -10 5z"/>
<path d="M28456 19817 c3 -10 9 -15 12 -12 3 3 0 11 -7 18 -10 9 -11 8 -5 -6z"/>
<path d="M18541 19757 c-6 -25 -13 -52 -17 -61 -3 -9 -2 -16 4 -16 9 0 36 110
28 117 -2 2 -8 -16 -15 -40z"/>
<path d="M18492 19603 c-12 -39 -7 -57 8 -33 9 14 14 70 7 70 -2 0 -9 -17 -15
-37z"/>
<path d="M24962 19560 c0 -14 2 -19 5 -12 2 6 2 18 0 25 -3 6 -5 1 -5 -13z"/>
<path d="M18458 19502 c-10 -26 -14 -50 -9 -55 4 -4 13 16 19 44 16 66 11 71
-10 11z"/>
<path d="M21223 19445 c0 -27 2 -38 4 -22 2 15 2 37 0 50 -2 12 -4 0 -4 -28z"/>
<path d="M18417 19396 c-9 -26 -14 -46 -11 -46 3 0 0 -6 -6 -12 -10 -12 -181
-351 -188 -373 -2 -5 9 10 23 35 32 53 188 354 186 358 -1 1 3 19 8 39 15 53
6 52 -12 -1z"/>
<path d="M21240 19310 c0 -3 7 -25 15 -50 l15 -45 -6 40 c-3 22 -10 44 -15 50
-5 5 -9 7 -9 5z"/>
<path d="M21290 19170 c38 -75 136 -212 186 -260 38 -37 43 -40 28 -15 -36 58
-87 120 -96 117 -5 -1 -7 2 -4 7 4 5 -9 26 -28 46 -19 20 -43 55 -54 79 -11
23 -28 49 -38 56 -13 12 -12 6 6 -30z"/>
<path d="M24705 19170 c-4 -6 3 -10 14 -10 25 0 27 6 6 13 -8 4 -17 2 -20 -3z"/>
<path d="M24334 19088 c11 -54 27 -55 19 0 -3 17 -10 32 -15 32 -6 0 -8 -13
-4 -32z"/>
<path d="M24610 19046 c14 -8 29 -12 34 -8 10 6 -20 20 -44 21 -8 0 -4 -6 10
-13z"/>
<path d="M24710 19050 c0 -5 6 -10 14 -10 8 0 18 5 21 10 3 6 -3 10 -14 10
-12 0 -21 -4 -21 -10z"/>
<path d="M24870 19056 c0 -9 50 -12 62 -5 8 6 -1 9 -24 9 -21 0 -38 -2 -38 -4z"/>
<path d="M24818 19043 c7 -3 16 -2 19 1 4 3 -2 6 -13 5 -11 0 -14 -3 -6 -6z"/>
<path d="M24904 19019 c-3 -5 0 -17 5 -26 6 -10 11 -12 11 -5 0 6 9 12 20 12
11 0 20 4 20 9 0 12 -49 21 -56 10z"/>
<path d="M24845 19010 c3 -5 13 -10 21 -10 8 0 14 5 14 10 0 6 -9 10 -21 10
-11 0 -17 -4 -14 -10z"/>
<path d="M24400 18970 c0 -5 5 -10 10 -10 6 0 10 5 10 10 0 6 -4 10 -10 10 -5
0 -10 -4 -10 -10z"/>
<path d="M18165 18904 c-9 -15 -12 -23 -6 -20 11 7 35 46 28 46 -3 0 -12 -12
-22 -26z"/>
<path d="M21564 18846 c-3 -9 -11 -13 -17 -9 -6 4 -7 1 -2 -6 6 -10 11 -9 23
3 9 8 13 19 9 22 -4 4 -9 -1 -13 -10z"/>
<path d="M19646 18454 c-10 -25 1 -29 14 -5 6 12 7 21 1 21 -5 0 -12 -7 -15
-16z"/>
<path d="M25170 18340 c0 -11 5 -20 10 -20 6 0 10 9 10 20 0 11 -4 20 -10 20
-5 0 -10 -9 -10 -20z"/>
<path d="M25026 18335 c-3 -8 -1 -15 4 -15 6 0 10 7 10 15 0 8 -2 15 -4 15 -2
0 -6 -7 -10 -15z"/>
<path d="M24630 18326 c0 -2 7 -9 15 -16 13 -11 14 -10 9 4 -5 14 -24 23 -24
12z"/>
<path d="M24705 18320 c-3 -5 -1 -10 4 -10 6 0 11 5 11 10 0 6 -2 10 -4 10 -3
0 -8 -4 -11 -10z"/>
<path d="M24980 18310 c0 -5 5 -10 10 -10 6 0 10 5 10 10 0 6 -4 10 -10 10 -5
0 -10 -4 -10 -10z"/>
<path d="M25130 18310 c0 -5 5 -10 10 -10 6 0 10 5 10 10 0 6 -4 10 -10 10 -5
0 -10 -4 -10 -10z"/>
<path d="M24675 18090 c19 -38 37 -70 39 -70 2 0 1 11 -2 25 -2 14 -8 25 -12
25 -5 0 -16 20 -26 45 -9 25 -21 45 -25 45 -5 0 7 -31 26 -70z"/>
<path d="M24720 18008 c0 -4 9 -22 20 -40 12 -20 20 -26 20 -17 0 16 -39 72
-40 57z"/>
<path d="M24781 17890 c12 -22 24 -38 26 -36 4 4 -37 76 -44 76 -2 0 6 -18 18
-40z"/>
<path d="M18981 17854 c0 -11 3 -14 6 -6 3 7 2 16 -1 19 -3 4 -6 -2 -5 -13z"/>
<path d="M18860 17840 c0 -5 5 -10 10 -10 6 0 10 5 10 10 0 6 -4 10 -10 10 -5
0 -10 -4 -10 -10z"/>
<path d="M24820 17834 c0 -11 49 -84 56 -84 6 0 1 9 -33 59 -13 19 -23 30 -23
25z"/>
<path d="M25750 17525 c0 -13 107 -131 113 -125 3 3 -22 34 -54 70 -32 36 -59
61 -59 55z"/>
<path d="M25040 17516 c0 -2 8 -10 18 -17 15 -13 16 -12 3 4 -13 16 -21 21
-21 13z"/>
<path d="M12710 17470 c0 -5 9 -10 19 -10 11 0 23 5 26 10 4 6 -5 10 -19 10
-14 0 -26 -4 -26 -10z"/>
<path d="M12806 17414 c-9 -22 3 -32 14 -14 12 19 12 30 1 30 -5 0 -12 -7 -15
-16z"/>
<path d="M25875 17380 c3 -5 8 -10 11 -10 2 0 4 5 4 10 0 6 -5 10 -11 10 -5 0
-7 -4 -4 -10z"/>
<path d="M12729 17361 c12 -8 51 -4 51 5 0 2 -15 4 -32 4 -23 0 -29 -3 -19 -9z"/>
<path d="M25900 17356 c0 -2 8 -10 18 -17 15 -13 16 -12 3 4 -13 16 -21 21
-21 13z"/>
<path d="M13110 17280 c0 -5 5 -10 11 -10 5 0 7 5 4 10 -3 6 -8 10 -11 10 -2
0 -4 -4 -4 -10z"/>
<path d="M12880 17260 c0 -19 3 -21 12 -12 9 9 9 15 0 24 -9 9 -12 7 -12 -12z"/>
<path d="M13381 17255 c3 -2 14 -6 25 -8 10 -2 33 -11 51 -20 18 -9 38 -17 45
-17 7 0 33 -10 58 -22 25 -12 49 -20 54 -19 8 2 87 -20 136 -36 16 -6 29 -7
135 -17 50 -4 74 -11 83 -24 7 -9 15 -16 17 -14 3 1 8 2 13 1 4 0 42 -1 84 0
43 0 80 -4 83 -9 3 -5 27 -6 54 -3 33 3 58 0 79 -11 19 -10 33 -12 37 -6 3 6
11 10 16 10 6 0 8 -4 5 -9 -4 -5 97 -7 245 -5 383 6 387 7 54 14 -195 4 -360
13 -445 24 -159 20 -447 77 -575 113 -49 14 -97 27 -105 29 -8 2 -33 10 -55
18 -37 14 -104 22 -94 11z"/>
<path d="M13240 17196 c0 -11 9 -16 30 -16 17 0 30 5 30 11 0 6 -7 8 -16 5 -9
-4 -23 -1 -30 5 -11 9 -14 8 -14 -5z"/>
<path d="M13320 17188 c0 -16 -39 -38 -67 -38 -14 0 -14 -2 3 -15 10 -8 29
-15 40 -15 17 0 23 8 29 36 3 20 4 39 1 42 -3 3 -6 -1 -6 -10z"/>
<path d="M13335 17138 c9 -28 25 -47 25 -30 0 7 9 12 20 12 13 0 20 7 20 20 0
16 -7 20 -36 20 -32 0 -35 -2 -29 -22z"/>
<path d="M13417 17149 c8 -8 16 -8 30 0 16 9 14 10 -11 11 -22 0 -27 -3 -19
-11z"/>
<path d="M15485 17130 c4 -6 11 -8 16 -5 14 9 11 15 -7 15 -8 0 -12 -5 -9 -10z"/>
<path d="M13456 17114 c-5 -13 -9 -14 -21 -4 -13 11 -15 7 -15 -29 0 -22 5
-41 10 -41 6 0 10 8 10 18 0 9 9 23 20 30 11 7 20 19 20 27 0 20 -16 19 -24
-1z"/>
<path d="M13598 17113 c7 -3 16 -2 19 1 4 3 -2 6 -13 5 -11 0 -14 -3 -6 -6z"/>
<path d="M13374 17096 c-10 -8 -16 -17 -13 -20 10 -10 39 5 39 20 0 17 -2 17
-26 0z"/>
<path d="M13515 17097 c-31 -17 -18 -61 18 -65 21 -3 28 2 33 22 4 17 1 31 -9
41 -18 17 -15 17 -42 2z m42 -22 c3 -9 3 -18 1 -21 -9 -9 -38 8 -38 22 0 19
29 18 37 -1z"/>
<path d="M15248 17093 c6 -2 18 -2 25 0 6 3 1 5 -13 5 -14 0 -19 -2 -12 -5z"/>
<path d="M13580 17005 c0 -8 5 -15 10 -15 6 0 10 7 10 15 0 8 -4 15 -10 15 -5
0 -10 -7 -10 -15z"/>
<path d="M13674 16995 c-3 -8 -4 -20 -1 -27 3 -7 6 -3 6 9 1 14 9 23 24 26
l22 4 -23 2 c-12 0 -25 -6 -28 -14z"/>
<path d="M13811 17001 c-8 -5 -9 -11 -3 -15 5 -3 12 1 16 9 6 17 6 18 -13 6z"/>
<path d="M27053 16723 c9 -2 23 -2 30 0 6 3 -1 5 -18 5 -16 0 -22 -2 -12 -5z"/>
<path d="M27128 16713 c12 -2 32 -2 45 0 12 2 2 4 -23 4 -25 0 -35 -2 -22 -4z"/>
<path d="M27538 16713 c6 -2 18 -2 25 0 6 3 1 5 -13 5 -14 0 -19 -2 -12 -5z"/>
<path d="M27308 16703 c6 -2 18 -2 25 0 6 3 1 5 -13 5 -14 0 -19 -2 -12 -5z"/>
<path d="M27368 16703 c6 -2 18 -2 25 0 6 3 1 5 -13 5 -14 0 -19 -2 -12 -5z"/>
<path d="M23972 14463 c-11 -27 -23 -59 -27 -73 -48 -168 -183 -496 -390 -946
-18 -39 -72 -161 -120 -270 -241 -549 -657 -1488 -792 -1789 -47 -104 -136
-307 -198 -450 -215 -498 -284 -636 -352 -707 -38 -39 -154 -97 -226 -113
-143 -30 -261 4 -376 111 -103 95 -117 134 -171 489 -11 77 -34 228 -51 335
-16 107 -54 369 -84 581 -30 212 -65 451 -79 530 -14 79 -50 320 -81 534 -31
215 -71 496 -90 625 -19 129 -59 413 -90 630 -30 217 -60 411 -67 430 -41 129
-91 106 -194 -88 -64 -121 -235 -423 -434 -767 -51 -88 -143 -248 -205 -355
-134 -234 -138 -240 -235 -405 -77 -131 -162 -280 -347 -610 -252 -449 -327
-582 -426 -752 -17 -28 -35 -49 -41 -47 -6 2 -33 46 -60 97 -87 162 -195 346
-339 577 -77 124 -241 393 -364 598 -123 205 -283 466 -357 580 -191 297 -317
498 -411 652 -129 212 -335 520 -378 567 -41 45 -60 51 -89 29 -14 -10 -21
-53 -38 -222 -11 -115 -22 -220 -25 -234 -2 -14 -9 -74 -15 -135 -6 -60 -24
-209 -40 -330 -16 -121 -45 -359 -64 -530 -36 -313 -55 -459 -100 -772 -14
-95 -50 -372 -81 -615 -30 -244 -57 -454 -60 -468 -3 -14 -12 -77 -20 -140
-85 -634 -82 -616 -121 -697 -65 -136 -188 -207 -397 -229 l-58 -6 3 -46 3
-47 653 0 c717 0 675 -4 670 60 -3 30 -3 30 -80 36 -51 4 -87 13 -110 27 -47
30 -135 122 -147 155 -16 42 -13 164 8 337 11 85 29 252 41 370 11 118 30 283
40 365 11 83 26 211 34 285 33 296 57 514 76 705 12 109 22 201 24 203 6 6
158 -249 487 -813 160 -276 213 -365 311 -525 52 -85 138 -234 192 -330 54
-96 117 -206 141 -245 23 -38 111 -189 195 -335 161 -280 223 -375 266 -409
33 -26 35 -26 63 0 15 14 21 28 17 42 -7 30 30 192 74 322 41 121 131 306 220
454 31 53 89 150 127 216 39 66 99 170 135 230 36 61 95 166 133 235 74 136
238 428 344 610 36 63 116 206 176 319 61 112 114 205 120 205 13 1 31 -86 40
-187 3 -45 11 -116 16 -157 6 -41 19 -147 29 -235 10 -88 30 -248 44 -355 13
-107 28 -229 31 -270 4 -41 15 -131 25 -200 10 -69 28 -204 39 -300 27 -222
37 -298 51 -384 17 -100 -5 -177 -68 -241 -59 -60 -106 -83 -189 -93 l-68 -7
3 -40 c2 -22 6 -42 9 -45 10 -10 2992 -5 3002 5 5 6 11 26 13 45 l3 35 -76 11
c-42 7 -91 20 -109 29 -43 22 -120 102 -137 142 -22 54 -16 133 18 230 26 73
214 522 291 696 l21 47 724 0 723 0 34 -68 c19 -38 68 -151 109 -253 41 -101
93 -225 115 -276 63 -142 104 -264 105 -313 1 -56 -19 -94 -79 -153 -49 -49
-92 -69 -186 -87 -53 -11 -58 -14 -58 -38 1 -61 -68 -57 957 -59 516 0 957 1
980 4 37 4 41 8 46 36 2 18 1 37 -4 43 -5 6 -42 15 -81 18 -123 13 -254 76
-347 169 -91 90 -253 393 -426 796 -18 42 -77 171 -132 286 -55 116 -160 338
-233 495 -73 157 -166 356 -206 443 -41 87 -74 160 -74 162 0 2 -61 131 -136
287 -75 156 -171 360 -214 453 -43 94 -119 258 -170 365 -51 107 -121 258
-155 335 -129 287 -293 613 -313 624 -45 24 -68 14 -90 -36z m-103 -1593 c52
-152 209 -543 386 -960 101 -239 135 -325 135 -344 0 -11 -106 -13 -580 -15
-523 -2 -580 -1 -580 13 0 23 182 463 370 896 56 129 170 416 206 519 9 26 29
-9 63 -109z"/>
<path d="M5380 14364 c-13 -4 -15 -15 -10 -52 l5 -47 55 -3 c76 -3 181 -38
237 -78 50 -36 87 -85 130 -173 l28 -56 3 -1510 c4 -1588 0 -1880 -24 -1871
-28 11 -191 153 -299 261 -62 61 -134 146 -164 190 -147 224 -246 529 -294
907 -15 113 -26 138 -61 138 -51 0 -69 -40 -86 -187 -25 -206 32 -556 130
-797 177 -438 434 -722 837 -925 210 -105 372 -154 661 -198 170 -26 192 -27
577 -27 387 0 406 1 580 28 407 63 713 171 945 336 369 262 516 555 513 1025
-1 178 -17 274 -72 425 -120 326 -449 609 -831 714 -36 10 -68 20 -73 23 -14
8 12 40 70 84 155 117 242 245 301 445 70 236 65 428 -16 651 -51 139 -137
255 -270 366 -210 174 -448 269 -797 316 -142 20 -193 21 -1105 20 -525 -1
-962 -3 -970 -5z m1611 -334 c206 -20 367 -120 472 -293 78 -130 107 -255 107
-474 0 -294 -69 -493 -225 -649 -84 -84 -169 -129 -310 -165 -49 -12 -94 -26
-98 -30 -5 -4 -6 -16 -2 -28 8 -27 44 -36 223 -56 158 -18 336 -59 424 -98
157 -70 284 -197 396 -397 55 -98 73 -169 97 -380 15 -129 14 -143 -6 -300
-15 -123 -28 -185 -51 -243 -79 -207 -197 -352 -383 -473 -163 -106 -324 -144
-616 -144 -97 0 -191 3 -208 6 l-31 7 0 1863 0 1864 58 0 c31 0 100 -5 153
-10z"/>
<path d="M9458 14363 c-14 -4 -17 -12 -13 -45 3 -23 8 -44 10 -48 2 -4 41 -10
86 -13 67 -5 92 -12 143 -41 77 -43 149 -119 184 -194 l27 -57 3 -1735 c2
-1163 -1 -1761 -8 -1814 -23 -176 -137 -279 -358 -325 -51 -10 -95 -21 -98
-24 -3 -3 -2 -21 1 -40 5 -24 13 -37 28 -41 31 -8 1752 -8 1810 0 l48 7 -3 41
-3 41 -76 6 c-90 8 -166 43 -251 119 -68 61 -105 135 -118 236 -7 55 -15 2828
-10 3587 0 16 16 17 258 11 299 -6 380 -15 461 -48 104 -42 224 -135 295 -229
87 -114 132 -231 157 -411 23 -169 24 -212 3 -347 -21 -145 -37 -197 -104
-334 -47 -95 -74 -136 -131 -198 -165 -179 -320 -242 -654 -268 -82 -6 -154
-15 -158 -19 -19 -17 10 -58 117 -169 165 -172 194 -211 478 -676 187 -305
372 -594 491 -765 56 -80 143 -207 193 -282 105 -156 120 -177 224 -308 427
-541 748 -851 1140 -1098 415 -261 898 -380 1395 -343 259 19 415 57 639 157
182 81 236 124 222 179 l-6 25 -173 0 c-307 0 -515 51 -837 206 -360 173 -664
393 -1018 738 -243 236 -619 712 -922 1166 -256 383 -549 725 -758 882 -51 38
-90 73 -87 78 3 5 25 8 50 8 61 0 159 34 286 98 177 90 383 292 495 487 172
299 201 776 66 1103 -119 288 -456 547 -833 640 -224 56 -274 58 -1524 60
-632 1 -1158 0 -1167 -3z"/>
<path d="M13822 14361 c-9 -5 -12 -24 -10 -52 l3 -44 45 -2 c70 -4 151 -23
200 -48 65 -33 141 -105 173 -164 25 -45 29 -66 38 -203 12 -164 5 -3282 -7
-3413 -4 -50 -15 -87 -37 -128 -58 -111 -197 -204 -318 -214 -35 -3 -69 -10
-75 -15 -12 -8 -5 -62 10 -87 8 -12 1768 -15 1826 -3 29 6 36 13 38 36 2 16 0
32 -5 37 -5 5 -47 16 -93 25 -151 28 -279 113 -328 216 -34 73 -43 150 -52
438 -11 339 -12 2775 -1 3030 7 155 12 195 31 245 47 124 199 226 362 244 43
4 73 13 79 22 15 24 11 76 -7 83 -24 9 -1857 7 -1872 -3z"/>
<path d="M26283 14363 c-16 -6 -17 -85 -2 -100 6 -6 28 -9 49 -6 48 7 130 -12
193 -44 108 -54 168 -140 187 -268 7 -46 13 -476 15 -1250 2 -649 7 -1233 10
-1299 14 -249 120 -567 258 -771 87 -128 261 -299 397 -390 97 -65 314 -169
442 -213 230 -80 470 -117 814 -128 259 -7 395 3 591 47 310 69 536 172 728
332 198 166 301 299 400 517 88 191 120 316 146 560 9 85 13 452 13 1390 l1
1275 26 55 c34 73 84 129 134 151 22 10 81 23 130 29 134 16 132 15 139 54 14
72 70 66 -688 64 l-681 -3 3 -49 c1 -27 4 -51 6 -53 2 -2 44 -6 94 -7 70 -3
101 -9 138 -27 76 -38 140 -102 166 -167 l23 -57 3 -1220 c2 -795 -1 -1271 -8
-1365 -33 -460 -208 -800 -516 -1006 -139 -93 -238 -130 -439 -163 -93 -16
-188 -26 -210 -24 -319 36 -487 94 -671 231 -229 172 -381 422 -451 742 -24
110 -25 135 -33 615 -11 692 3 2176 21 2230 21 66 65 121 129 163 60 40 74 44
205 60 l60 7 3 39 c2 24 -2 42 -10 47 -14 9 -1794 11 -1815 2z"/>
<path d="M31290 14340 c0 -16 5 -41 12 -55 10 -23 16 -25 49 -20 65 11 236
-58 294 -119 11 -11 36 -48 55 -81 l35 -60 5 -395 c3 -217 3 -1036 0 -1820
l-5 -1425 -36 -65 c-64 -116 -168 -182 -342 -217 l-78 -16 7 -31 c3 -17 10
-35 16 -41 10 -11 1607 -17 1766 -6 99 6 113 14 104 57 -6 30 -5 30 -109 48
-45 8 -104 25 -130 38 -72 36 -166 134 -194 204 l-24 59 -5 805 c-3 443 -4
808 -2 813 2 4 435 7 963 7 l959 0 -2 -827 c-3 -819 -3 -828 -24 -873 -29 -61
-101 -138 -165 -177 -48 -29 -86 -41 -232 -75 -35 -8 -38 -11 -35 -41 3 -31 5
-32 58 -39 75 -8 1645 -8 1743 1 81 7 97 16 97 58 0 18 -7 23 -47 28 -207 28
-336 118 -399 277 l-29 73 -3 1755 -3 1755 22 60 c27 76 67 134 122 178 65 53
101 67 206 81 53 7 103 16 109 20 18 11 15 83 -4 90 -20 8 -1838 8 -1858 0
-18 -7 -22 -55 -7 -83 8 -13 24 -18 68 -20 111 -4 222 -50 284 -118 14 -15 41
-55 60 -88 l34 -60 9 -812 c4 -447 6 -819 3 -828 -6 -13 -112 -15 -967 -15
l-960 0 -1 668 c-1 367 -3 699 -5 737 -5 128 10 236 43 307 53 113 139 177
268 198 138 23 138 23 147 55 4 17 5 38 2 48 -5 16 -59 17 -940 17 l-934 0 0
-30z"/>
</g>
</svg>
