<?xml version="1.0" standalone="no"?>
<!DOCTYPE svg PUBLIC "-//W3C//DTD SVG 20010904//EN"
 "http://www.w3.org/TR/2001/REC-SVG-20010904/DTD/svg10.dtd">
<svg version="1.0" xmlns="http://www.w3.org/2000/svg"
 width="1053.000000pt" height="535.000000pt" viewBox="0 0 1053.000000 535.000000"
 preserveAspectRatio="xMidYMid meet">

<g transform="translate(0.000000,535.000000) scale(0.100000,-0.100000)"
fill="#000000" stroke="none">
<path d="M1825 4401 c-55 -25 -101 -65 -129 -115 -14 -22 -59 -142 -102 -266
-42 -124 -79 -231 -81 -237 -4 -10 20 -13 99 -13 l104 0 74 215 c40 119 79
224 86 233 34 47 20 -17 -50 -218 -42 -122 -76 -223 -76 -226 0 -2 46 -4 103
-4 l102 0 69 203 c75 221 92 261 106 252 5 -3 -24 -103 -65 -222 -41 -119 -75
-220 -75 -225 0 -5 46 -7 102 -6 l102 3 82 240 c93 270 102 323 61 371 -44 51
-178 44 -256 -14 -27 -20 -35 -22 -42 -11 -5 8 -9 17 -9 21 0 4 -13 14 -30 23
-39 20 -126 19 -175 -4z"/>
<path d="M2578 4225 c-51 -19 -118 -66 -156 -110 -49 -55 -74 -113 -79 -180
-6 -77 17 -121 78 -153 43 -22 50 -22 199 -15 l154 8 48 140 c39 112 48 149
45 188 -8 93 -67 137 -182 136 -38 0 -87 -7 -107 -14z m75 -176 c10 -16 3 -74
-11 -95 -4 -6 -21 -15 -38 -18 -68 -15 -82 52 -23 107 33 30 56 32 72 6z"/>
<path d="M2954 4140 l-30 -90 68 0 c37 0 68 -3 68 -6 0 -3 -49 -64 -110 -134
-60 -71 -110 -132 -110 -135 0 -3 103 -5 229 -5 l229 0 30 90 30 89 -79 3 -78
3 102 121 c56 66 108 128 116 137 12 16 -2 17 -210 17 l-224 0 -31 -90z"/>
</g>
</svg>
