<?xml version="1.0" standalone="no"?>
<!DOCTYPE svg PUBLIC "-//W3C//DTD SVG 20010904//EN"
 "http://www.w3.org/TR/2001/REC-SVG-20010904/DTD/svg10.dtd">
<svg version="1.0" xmlns="http://www.w3.org/2000/svg"
 width="2560.000000pt" height="1440.000000pt" viewBox="0 0 2560.000000 1440.000000"
 preserveAspectRatio="xMidYMid meet">

<g transform="translate(0.000000,1440.000000) scale(0.100000,-0.100000)"
fill="#000000" stroke="none">
<path d="M7960 9426 l-505 -292 -3 -2047 -2 -2047 227 0 227 0 513 296 513
296 2 245 3 245 241 -538 241 -539 113 -3 113 -3 445 257 c245 141 477 275
515 298 l69 41 234 525 234 525 0 -822 0 -823 240 0 240 0 2 2047 3 2047 253
145 253 146 -98 7 c-54 5 -168 16 -253 27 l-155 18 -288 -164 c-158 -91 -296
-172 -306 -181 -11 -10 -205 -430 -432 -934 -228 -505 -416 -918 -419 -918 -3
0 -246 548 -541 1218 l-536 1217 -319 2 -319 2 -505 -293z"/>
<path d="M18147 8254 l-509 -294 -1124 0 -1124 0 0 -200 0 -200 779 -2 779 -3
-859 -1180 -859 -1180 0 -77 0 -78 1194 0 1194 0 509 293 508 294 3 201 2 202
-855 0 -855 0 -487 -281 c-269 -155 -498 -287 -510 -295 -13 -8 37 68 110 168
73 101 398 549 722 997 l590 814 215 186 c119 102 304 260 412 350 109 90 196
167 195 172 -1 4 41 34 93 66 53 32 162 99 243 148 l147 90 0 53 c0 28 -1 52
-2 51 -2 0 -232 -133 -511 -295z m18 -122 c-15 -14 -131 -76 -122 -66 12 13
110 72 122 73 6 1 6 -2 0 -7z m-140 -80 c-18 -15 -85 -54 -85 -48 0 3 19 16
43 30 43 26 59 33 42 18z"/>
<path d="M13483 8014 c-228 -21 -428 -79 -630 -181 l-153 -78 0 -238 c0 -188
3 -237 12 -230 7 4 74 49 149 99 116 79 157 101 285 149 138 53 162 59 325 80
l176 23 170 -42 171 -41 100 -124 c98 -121 101 -126 112 -195 6 -39 22 -132
34 -207 l22 -135 -437 -62 -438 -61 -268 -82 -268 -82 -102 -101 -103 -101 0
305 c0 338 -3 377 -31 385 -13 4 -19 16 -19 35 0 20 -6 31 -20 35 -12 4 -20
15 -20 29 0 13 -7 29 -15 36 -8 7 -15 23 -15 36 0 14 -8 25 -20 29 -14 4 -20
15 -20 35 0 20 -6 31 -20 35 -13 4 -20 15 -20 31 0 27 -12 31 -30 9 -7 -8 -23
-15 -35 -15 -13 0 -25 -7 -29 -15 -3 -9 -18 -15 -35 -15 -35 0 -378 -171 -404
-202 -15 -18 -17 -40 -15 -197 l3 -176 30 3 c49 4 95 -34 137 -113 21 -39 44
-95 53 -125 8 -30 25 -84 36 -120 30 -93 48 -233 37 -284 -10 -43 -33 -76 -53
-76 -7 0 -18 -7 -25 -15 -7 -8 -19 -15 -28 -15 -8 0 -29 -10 -46 -23 -17 -12
-57 -38 -89 -57 -70 -42 -92 -83 -113 -207 -17 -104 -31 -577 -18 -585 5 -3
152 77 328 178 175 102 320 183 321 182 1 -2 15 -38 32 -80 72 -178 245 -331
462 -407 97 -34 136 -42 252 -52 134 -12 144 -11 319 16 l180 29 142 83 c78
45 145 84 148 85 3 2 59 69 125 151 65 81 123 147 127 147 4 0 8 -103 8 -230
l0 -230 228 0 229 0 234 136 234 136 -105 -7 c-58 -3 -127 -12 -155 -20 -27
-7 -85 -15 -127 -18 l-78 -4 0 849 0 850 -56 291 -55 291 -89 97 -90 97 50 52
c60 63 64 92 18 120 -26 16 -51 20 -120 20 -48 0 -97 -4 -110 -8 -16 -6 -104
9 -293 49 -148 32 -286 58 -305 57 -19 0 -103 -7 -187 -14z m777 -1626 c0 -73
-7 -189 -15 -258 -8 -69 -15 -126 -15 -128 0 -8 -48 13 -79 34 l-34 23 -373
-187 c-294 -147 -374 -191 -374 -206 0 -22 33 -80 68 -118 14 -15 22 -33 19
-42 -3 -8 -48 -36 -99 -62 -91 -46 -94 -46 -138 -35 -63 17 -163 84 -215 145
-88 104 -120 229 -99 396 14 115 43 188 103 257 73 86 242 161 446 198 82 16
747 111 788 114 15 1 17 -12 17 -131z"/>
</g>
</svg>
